M48
;Layer_Color=9474304
;FILE_FORMAT=2:5
INCH,LZ
;TYPE=PLATED
T1F00S00C0.01181
T2F00S00C0.01968
T3F00S00C0.02800
T4F00S00C0.03500
T5F00S00C0.03543
%
T01
X01744Y02519
X02015Y02437
X0219553Y02504
X021885Y02759
X0214Y027266
X02085Y027676
X01898Y02773
Y02802
Y02833
X0230953Y0279947
X02545Y02779
X026025Y02777
X0269Y0275
X0272153Y02805
X02669Y02671
X0261Y0262
X02499Y02631
X02521Y0249753
X0264Y0245
X02864Y02557
X02848Y02634
Y0269
X02927Y027
Y0267
Y0264
Y0261
X03002Y0264
T02
X03002Y02355
X0292944Y0274244
T03
X02209Y02324
X02259
X02309
X02359
X02409
X02459
X02509
X02579
X02625Y02325
T04
X017Y02325
X018
X019
X02
X021
T05
X02817Y0283
X02917
X03017
X03093Y02702
Y02602
X0155Y0257579
Y0247736
Y0267421
Y0277264
X01325
Y0267421
Y0257579
Y0247736
M30
