G04 Layer_Color=32896*
%FSLAX25Y25*%
%MOIN*%
G70*
G01*
G75*
%ADD40C,0.00800*%
D40*
X226000Y286998D02*
Y282000D01*
X223501D01*
X222668Y282833D01*
Y286165D01*
X223501Y286998D01*
X226000D01*
X221002Y285332D02*
X217669Y282000D01*
X219336Y283666D01*
X217669Y285332D01*
X221002Y282000D01*
X216003D02*
X214337D01*
X215170D01*
Y286998D01*
X216003D01*
X208506Y286165D02*
X209339Y286998D01*
X211005D01*
X211838Y286165D01*
Y285332D01*
X211005Y284499D01*
X209339D01*
X208506Y283666D01*
Y282833D01*
X209339Y282000D01*
X211005D01*
X211838Y282833D01*
X204340Y282000D02*
X206007D01*
X206839Y282833D01*
Y284499D01*
X206007Y285332D01*
X204340D01*
X203507Y284499D01*
Y283666D01*
X206839D01*
X201841Y285332D02*
Y282000D01*
Y283666D01*
X201008Y284499D01*
X200175Y285332D01*
X199342D01*
X196843D02*
X195177Y282000D01*
X193510Y285332D01*
X191011Y282000D02*
X189345D01*
X188512Y282833D01*
Y284499D01*
X189345Y285332D01*
X191011D01*
X191844Y284499D01*
Y282833D01*
X191011Y282000D01*
X181848D02*
X180182D01*
X181015D01*
Y286998D01*
X181848Y286165D01*
X177682Y282000D02*
Y282833D01*
X176849D01*
Y282000D01*
X177682D01*
X173517Y286165D02*
X172684Y286998D01*
X171018D01*
X170185Y286165D01*
Y282833D01*
X171018Y282000D01*
X172684D01*
X173517Y282833D01*
Y286165D01*
M02*
