G04 Layer_Color=8388736*
%FSLAX25Y25*%
%MOIN*%
G70*
G01*
G75*
%ADD43R,0.10249X0.10249*%
%ADD44R,0.03950X0.04599*%
%ADD45R,0.04737X0.04343*%
%ADD46R,0.06509X0.02965*%
%ADD47R,0.04343X0.03950*%
%ADD48R,0.04599X0.03950*%
%ADD49R,0.04343X0.04737*%
%ADD50R,0.06312X0.03162*%
%ADD51R,0.06312X0.05328*%
%ADD52R,0.02769X0.01784*%
%ADD53R,0.04343X0.08674*%
%ADD54R,0.16942X0.16942*%
%ADD55R,0.01981X0.03753*%
%ADD56R,0.03753X0.01981*%
%ADD57C,0.07800*%
%ADD58R,0.07800X0.07800*%
%ADD59C,0.07493*%
G04:AMPARAMS|DCode=60|XSize=48mil|YSize=68mil|CornerRadius=14mil|HoleSize=0mil|Usage=FLASHONLY|Rotation=180.000|XOffset=0mil|YOffset=0mil|HoleType=Round|Shape=RoundedRectangle|*
%AMROUNDEDRECTD60*
21,1,0.04800,0.04000,0,0,180.0*
21,1,0.02000,0.06800,0,0,180.0*
1,1,0.02800,-0.01000,0.02000*
1,1,0.02800,0.01000,0.02000*
1,1,0.02800,0.01000,-0.02000*
1,1,0.02800,-0.01000,-0.02000*
%
%ADD60ROUNDEDRECTD60*%
%ADD61R,0.06706X0.06706*%
%ADD62C,0.06706*%
%ADD63R,0.06706X0.06706*%
%ADD64C,0.03162*%
%ADD65C,0.04737*%
G36*
X299140Y262980D02*
X298090Y263350D01*
X297730Y263440D01*
X297740Y264840D01*
X299140Y265020D01*
Y262980D01*
D02*
G37*
G36*
X298090Y262840D02*
X298910Y262520D01*
X298660Y260990D01*
X297980Y261350D01*
X297770D01*
X297720Y262830D01*
X297780Y262890D01*
X298090Y262840D01*
D02*
G37*
G36*
X298740Y267690D02*
X297780Y267620D01*
X297720D01*
X297670Y269080D01*
X297930Y269130D01*
X298280Y269430D01*
X298610Y269700D01*
X298740Y267690D01*
D02*
G37*
G36*
X298810Y265630D02*
X297780Y265650D01*
X297690Y267080D01*
X298480Y267170D01*
X298880Y267180D01*
X298810Y265630D01*
D02*
G37*
D43*
X274400Y246039D02*
D03*
Y263361D02*
D03*
D44*
X260300Y284050D02*
D03*
Y277750D02*
D03*
X242200Y279450D02*
D03*
Y285750D02*
D03*
X260700Y262550D02*
D03*
Y268850D02*
D03*
D45*
X254500Y277847D02*
D03*
Y283753D02*
D03*
X255100Y268353D02*
D03*
Y262447D02*
D03*
X251700Y249753D02*
D03*
Y243847D02*
D03*
X264200Y257047D02*
D03*
Y251142D02*
D03*
X258300Y252353D02*
D03*
Y246447D02*
D03*
X176200Y284353D02*
D03*
Y278447D02*
D03*
X201600Y277347D02*
D03*
Y283253D02*
D03*
D46*
X286276Y249040D02*
D03*
Y245300D02*
D03*
Y241560D02*
D03*
X295724Y249040D02*
D03*
Y241560D02*
D03*
X185076Y283440D02*
D03*
Y279700D02*
D03*
Y275960D02*
D03*
X194524Y283440D02*
D03*
Y275960D02*
D03*
D47*
X236700Y285853D02*
D03*
Y279947D02*
D03*
X231000Y285853D02*
D03*
Y279947D02*
D03*
D48*
X272550Y286700D02*
D03*
X266250D02*
D03*
X218850Y286000D02*
D03*
X225150D02*
D03*
X225250Y275800D02*
D03*
X218950D02*
D03*
D49*
X272153Y280500D02*
D03*
X266247D02*
D03*
X179147Y246900D02*
D03*
X185053D02*
D03*
X218953Y268300D02*
D03*
X213047D02*
D03*
X294753Y234000D02*
D03*
X288847D02*
D03*
X285047Y256000D02*
D03*
X290953D02*
D03*
X219553Y250400D02*
D03*
X213647D02*
D03*
D50*
X200533Y253000D02*
D03*
Y258000D02*
D03*
Y263000D02*
D03*
Y268000D02*
D03*
X179667Y268000D02*
D03*
Y263000D02*
D03*
Y258000D02*
D03*
Y253000D02*
D03*
D51*
X167700Y263240D02*
D03*
Y255760D02*
D03*
X302600Y248940D02*
D03*
Y241460D02*
D03*
X168800Y284640D02*
D03*
Y277160D02*
D03*
X208500Y276760D02*
D03*
Y284240D02*
D03*
D52*
X296440Y260279D02*
D03*
Y262247D02*
D03*
Y264216D02*
D03*
Y266184D02*
D03*
Y268153D02*
D03*
Y270121D02*
D03*
X288960D02*
D03*
Y268153D02*
D03*
Y266184D02*
D03*
Y264216D02*
D03*
Y262247D02*
D03*
Y260279D02*
D03*
D53*
X292700Y265200D02*
D03*
D54*
X235000Y260000D02*
D03*
D55*
X242874Y249075D02*
D03*
X240905D02*
D03*
X238937D02*
D03*
X236968D02*
D03*
X235000D02*
D03*
X233032D02*
D03*
X231063D02*
D03*
X229095D02*
D03*
X227126D02*
D03*
Y270925D02*
D03*
X229095D02*
D03*
X231063D02*
D03*
X233032D02*
D03*
X235000D02*
D03*
X236968D02*
D03*
X238937D02*
D03*
X240905D02*
D03*
X242874D02*
D03*
D56*
X224075Y252126D02*
D03*
Y254095D02*
D03*
Y256063D02*
D03*
Y258032D02*
D03*
Y260000D02*
D03*
Y261968D02*
D03*
Y263937D02*
D03*
Y265905D02*
D03*
Y267874D02*
D03*
X245925D02*
D03*
Y265905D02*
D03*
Y263937D02*
D03*
Y261968D02*
D03*
Y260000D02*
D03*
Y258032D02*
D03*
Y256063D02*
D03*
Y254095D02*
D03*
Y252126D02*
D03*
D57*
X170000Y232500D02*
D03*
X190000D02*
D03*
X200000D02*
D03*
X180000D02*
D03*
D58*
X210000D02*
D03*
D59*
X155000Y247736D02*
D03*
Y257579D02*
D03*
Y267421D02*
D03*
Y277264D02*
D03*
X132500D02*
D03*
Y267421D02*
D03*
Y257579D02*
D03*
Y247736D02*
D03*
D60*
X262500Y232500D02*
D03*
X257900Y232400D02*
D03*
X220900D02*
D03*
X225900D02*
D03*
X230900D02*
D03*
X235900D02*
D03*
X240900D02*
D03*
X245900D02*
D03*
X250900D02*
D03*
D61*
X309300Y260200D02*
D03*
D62*
Y270200D02*
D03*
X291700Y283000D02*
D03*
X281700D02*
D03*
D63*
X301700D02*
D03*
D64*
X300200Y264000D02*
D03*
X272153Y280500D02*
D03*
X292700Y261000D02*
D03*
Y264000D02*
D03*
Y267000D02*
D03*
Y270000D02*
D03*
X230953Y279947D02*
D03*
X254500Y277900D02*
D03*
X286400Y255700D02*
D03*
X260250Y277700D02*
D03*
X219553Y250400D02*
D03*
X252100Y249753D02*
D03*
X218850Y275900D02*
D03*
X208500Y276760D02*
D03*
X261000Y262000D02*
D03*
D65*
X300200Y235500D02*
D03*
M02*
