G04 Layer_Color=16711935*
%FSLAX25Y25*%
%MOIN*%
G70*
G01*
G75*
%ADD57C,0.07800*%
%ADD58R,0.07800X0.07800*%
%ADD59C,0.07493*%
G04:AMPARAMS|DCode=60|XSize=48mil|YSize=68mil|CornerRadius=14mil|HoleSize=0mil|Usage=FLASHONLY|Rotation=180.000|XOffset=0mil|YOffset=0mil|HoleType=Round|Shape=RoundedRectangle|*
%AMROUNDEDRECTD60*
21,1,0.04800,0.04000,0,0,180.0*
21,1,0.02000,0.06800,0,0,180.0*
1,1,0.02800,-0.01000,0.02000*
1,1,0.02800,0.01000,0.02000*
1,1,0.02800,0.01000,-0.02000*
1,1,0.02800,-0.01000,-0.02000*
%
%ADD60ROUNDEDRECTD60*%
%ADD61R,0.06706X0.06706*%
%ADD62C,0.06706*%
%ADD63R,0.06706X0.06706*%
%ADD64C,0.03162*%
%ADD65C,0.04737*%
G36*
X297700Y259100D02*
X297600Y259000D01*
X287800D01*
Y272400D01*
X297700D01*
Y259100D01*
D02*
G37*
D57*
X170000Y232500D02*
D03*
X190000D02*
D03*
X200000D02*
D03*
X180000D02*
D03*
D58*
X210000D02*
D03*
D59*
X155000Y247736D02*
D03*
Y257579D02*
D03*
Y267421D02*
D03*
Y277264D02*
D03*
X132500D02*
D03*
Y267421D02*
D03*
Y257579D02*
D03*
Y247736D02*
D03*
D60*
X262500Y232500D02*
D03*
X257900Y232400D02*
D03*
X220900D02*
D03*
X225900D02*
D03*
X230900D02*
D03*
X235900D02*
D03*
X240900D02*
D03*
X245900D02*
D03*
X250900D02*
D03*
D61*
X309300Y260200D02*
D03*
D62*
Y270200D02*
D03*
X291700Y283000D02*
D03*
X281700D02*
D03*
D63*
X301700D02*
D03*
D64*
X300200Y264000D02*
D03*
X292700Y261000D02*
D03*
Y264000D02*
D03*
Y267000D02*
D03*
Y270000D02*
D03*
D65*
X300200Y235500D02*
D03*
M02*
