G04 Layer_Color=65535*
%FSLAX25Y25*%
%MOIN*%
G70*
G01*
G75*
%ADD24C,0.01000*%
%ADD38C,0.00984*%
%ADD39C,0.00787*%
%ADD40C,0.00800*%
%ADD41C,0.00500*%
%ADD42C,0.00400*%
D24*
X249173Y250157D02*
G03*
X249173Y250157I-394J0D01*
G01*
X165000Y227500D02*
X215000D01*
X165000D02*
Y237500D01*
X215000D01*
Y227500D02*
Y237500D01*
D38*
X204667Y249654D02*
G03*
X204667Y249654I-492J0D01*
G01*
D39*
X192600Y250421D02*
G03*
X187600Y250421I-2500J0D01*
G01*
X192600D02*
X199253D01*
X180947D02*
X187600D01*
X180947Y270500D02*
X199253D01*
Y250421D02*
Y270500D01*
X180947Y250421D02*
Y270500D01*
X304300Y275200D02*
X314300D01*
Y255200D02*
Y275200D01*
X304300Y255200D02*
X314300D01*
X304300D02*
Y275200D01*
X276700Y288000D02*
X306700D01*
X276700Y278000D02*
Y288000D01*
Y278000D02*
X306700D01*
Y288000D01*
D40*
X162700Y237700D02*
Y283097D01*
X142300Y237700D02*
X162700D01*
X142300D02*
Y287500D01*
X158297D01*
X162700Y283097D01*
X135797Y287500D02*
X140200Y283097D01*
X119800Y287500D02*
X135797D01*
X119800Y237700D02*
Y287500D01*
Y237700D02*
X140200D01*
Y283097D01*
X268101Y244858D02*
Y264543D01*
X280699D01*
Y244858D02*
Y264543D01*
X268101Y244858D02*
X280699D01*
X256300Y238199D02*
X258966D01*
X257633Y239532D02*
Y236866D01*
X261100Y238499D02*
X263766D01*
X303300Y275399D02*
X299968D01*
X293300Y275199D02*
X289968D01*
X291634Y276865D02*
Y273533D01*
X279800Y273100D02*
X282299D01*
X283132Y273933D01*
X282299Y274766D01*
X280633D01*
X279800Y275599D01*
X280633Y276432D01*
X283132D01*
D41*
X257970Y286670D02*
X262617D01*
X257970Y275112D02*
Y286670D01*
Y275112D02*
X262617D01*
Y286670D01*
X287850Y251205D02*
X294150D01*
Y239394D02*
Y251205D01*
X287850Y239394D02*
X294150D01*
X287850D02*
Y251205D01*
X234200Y277852D02*
Y279504D01*
Y286492D02*
Y288156D01*
X239200Y277906D02*
Y279504D01*
Y286492D02*
Y288156D01*
X234200Y277852D02*
X234477Y277575D01*
X237255Y288156D02*
X239200D01*
X234477Y277575D02*
X238869D01*
X234200Y288156D02*
X237255D01*
X238869Y277575D02*
X239200Y277906D01*
X228500Y277852D02*
Y279504D01*
Y286492D02*
Y288156D01*
X233500Y277906D02*
Y279504D01*
Y286492D02*
Y288156D01*
X228500Y277852D02*
X228777Y277575D01*
X231555Y288156D02*
X233500D01*
X228777Y277575D02*
X233169D01*
X228500Y288156D02*
X231555D01*
X233169Y277575D02*
X233500Y277906D01*
X275170Y284383D02*
Y289030D01*
X263612D02*
X275170D01*
X263612Y284383D02*
Y289030D01*
Y284383D02*
X275170D01*
X239883Y276830D02*
X244530D01*
Y288388D01*
X239883D02*
X244530D01*
X239883Y276830D02*
Y288388D01*
X216230Y283670D02*
Y288317D01*
Y283670D02*
X227788D01*
Y288317D01*
X216230D02*
X227788D01*
X227870Y273483D02*
Y278130D01*
X216312D02*
X227870D01*
X216312Y273483D02*
Y278130D01*
Y273483D02*
X227870D01*
X258383Y259930D02*
X263030D01*
Y271488D01*
X258383D02*
X263030D01*
X258383Y259930D02*
Y271488D01*
X164200Y252500D02*
Y266500D01*
X171200D01*
Y252500D02*
Y266500D01*
X164200Y252500D02*
X171200D01*
X299100Y238200D02*
Y252200D01*
X306100D01*
Y238200D02*
Y252200D01*
X299100Y238200D02*
X306100D01*
X165300Y273900D02*
Y287900D01*
X172300D01*
Y273900D02*
Y287900D01*
X165300Y273900D02*
X172300D01*
X212000Y273500D02*
Y287500D01*
X205000Y273500D02*
X212000D01*
X205000D02*
Y287500D01*
X212000D01*
X186650Y285606D02*
X192950D01*
Y273795D02*
Y285606D01*
X186650Y273795D02*
X192950D01*
X186650D02*
Y285606D01*
X244843Y271890D02*
X246850D01*
X246811Y271850D02*
X246850Y271890D01*
X246811Y269921D02*
Y271850D01*
X246850Y248189D02*
Y250197D01*
X246811Y248228D02*
X246850Y248189D01*
X244882Y248228D02*
X246811D01*
X223150Y269882D02*
Y271890D01*
X223189Y271850D01*
X225118D01*
X223189Y248228D02*
Y250157D01*
X223150Y248189D02*
X223189Y248228D01*
X223150Y248189D02*
X225157D01*
D42*
X257200Y275400D02*
Y286200D01*
X251900Y275400D02*
X257200D01*
X251900D02*
Y286200D01*
X257200D01*
X263800Y283200D02*
X274600D01*
Y277900D02*
Y283200D01*
X263800Y277900D02*
X274600D01*
X263800D02*
Y283200D01*
X176700Y244200D02*
X187500D01*
X176700D02*
Y249500D01*
X187500D01*
Y244200D02*
Y249500D01*
X252400Y260000D02*
Y270800D01*
X257700D01*
Y260000D02*
Y270800D01*
X252400Y260000D02*
X257700D01*
X210600Y271000D02*
X221400D01*
Y265700D02*
Y271000D01*
X210600Y265700D02*
X221400D01*
X210600D02*
Y271000D01*
X249000Y241400D02*
Y252200D01*
X254300D01*
Y241400D02*
Y252200D01*
X249000Y241400D02*
X254300D01*
X286400Y236700D02*
X297200D01*
Y231400D02*
Y236700D01*
X286400Y231400D02*
X297200D01*
X286400D02*
Y236700D01*
X261500Y248694D02*
Y259494D01*
X266800D01*
Y248694D02*
Y259494D01*
X261500Y248694D02*
X266800D01*
X255600Y244000D02*
Y254800D01*
X260900D01*
Y244000D02*
Y254800D01*
X255600Y244000D02*
X260900D01*
X282600Y253300D02*
X293400D01*
X282600D02*
Y258600D01*
X293400D01*
Y253300D02*
Y258600D01*
X211200Y253100D02*
X222000D01*
Y247800D02*
Y253100D01*
X211200Y247800D02*
X222000D01*
X211200D02*
Y253100D01*
X173500Y276000D02*
Y286800D01*
X178800D01*
Y276000D02*
Y286800D01*
X173500Y276000D02*
X178800D01*
X204300Y274900D02*
Y285700D01*
X199000Y274900D02*
X204300D01*
X199000D02*
Y285700D01*
X204300D01*
M02*
