G04 Layer_Physical_Order=2*
G04 Layer_Color=16770953*
%FSLAX25Y25*%
%MOIN*%
G70*
G01*
G75*
%ADD24C,0.01000*%
%ADD25C,0.02000*%
%ADD26C,0.05000*%
%ADD28C,0.07000*%
%ADD29R,0.07000X0.07000*%
%ADD30C,0.06693*%
G04:AMPARAMS|DCode=31|XSize=40mil|YSize=60mil|CornerRadius=10mil|HoleSize=0mil|Usage=FLASHONLY|Rotation=180.000|XOffset=0mil|YOffset=0mil|HoleType=Round|Shape=RoundedRectangle|*
%AMROUNDEDRECTD31*
21,1,0.04000,0.04000,0,0,180.0*
21,1,0.02000,0.06000,0,0,180.0*
1,1,0.02000,-0.01000,0.02000*
1,1,0.02000,0.01000,0.02000*
1,1,0.02000,0.01000,-0.02000*
1,1,0.02000,-0.01000,-0.02000*
%
%ADD31ROUNDEDRECTD31*%
%ADD32R,0.05906X0.05906*%
%ADD33C,0.05906*%
%ADD34R,0.05906X0.05906*%
%ADD35C,0.02362*%
%ADD36C,0.03937*%
%ADD37R,0.08200X0.12900*%
G36*
X315000Y227500D02*
X120000D01*
Y289000D01*
X315000D01*
Y227500D01*
D02*
G37*
%LPC*%
G36*
X154500Y276764D02*
X150682D01*
X150765Y276129D01*
X151203Y275072D01*
X151900Y274164D01*
X152808Y273467D01*
X153865Y273029D01*
X154500Y272946D01*
Y276764D01*
D02*
G37*
G36*
X159318D02*
X155500D01*
Y272946D01*
X156135Y273029D01*
X157192Y273467D01*
X158100Y274164D01*
X158797Y275072D01*
X159235Y276129D01*
X159318Y276764D01*
D02*
G37*
G36*
X218350Y275400D02*
X216726D01*
X216796Y275049D01*
X217278Y274327D01*
X217999Y273845D01*
X218350Y273776D01*
Y275400D01*
D02*
G37*
G36*
X136818Y276764D02*
X133000D01*
Y272946D01*
X133635Y273029D01*
X134692Y273467D01*
X135600Y274164D01*
X136297Y275072D01*
X136735Y276129D01*
X136818Y276764D01*
D02*
G37*
G36*
X132500Y271301D02*
X131496Y271169D01*
X130560Y270781D01*
X129757Y270165D01*
X129140Y269361D01*
X128753Y268425D01*
X128620Y267421D01*
X128753Y266417D01*
X129140Y265481D01*
X129757Y264678D01*
X130560Y264061D01*
X131496Y263674D01*
X132500Y263542D01*
X133504Y263674D01*
X134440Y264061D01*
X135243Y264678D01*
X135860Y265481D01*
X136247Y266417D01*
X136380Y267421D01*
X136247Y268425D01*
X135860Y269361D01*
X135243Y270165D01*
X134440Y270781D01*
X133504Y271169D01*
X132500Y271301D01*
D02*
G37*
G36*
X295872Y273744D02*
X290016D01*
X290052Y273469D01*
X290351Y272747D01*
X290827Y272127D01*
X291138Y271888D01*
X291127Y271572D01*
X290745Y271000D01*
X294655D01*
X294551Y271156D01*
X294441Y271651D01*
X294662Y271821D01*
X295061Y272127D01*
X295537Y272747D01*
X295836Y273469D01*
X295872Y273744D01*
D02*
G37*
G36*
X132000Y276764D02*
X128182D01*
X128265Y276129D01*
X128703Y275072D01*
X129400Y274164D01*
X130308Y273467D01*
X131365Y273029D01*
X132000Y272946D01*
Y276764D01*
D02*
G37*
G36*
X293444Y277172D02*
Y274744D01*
X295872D01*
X295836Y275019D01*
X295537Y275741D01*
X295061Y276361D01*
X294441Y276837D01*
X293719Y277136D01*
X293444Y277172D01*
D02*
G37*
G36*
X189300Y276800D02*
X187676D01*
X187745Y276449D01*
X188227Y275728D01*
X188949Y275245D01*
X189300Y275176D01*
Y276800D01*
D02*
G37*
G36*
X191924D02*
X190300D01*
Y275176D01*
X190651Y275245D01*
X191373Y275728D01*
X191855Y276449D01*
X191924Y276800D01*
D02*
G37*
G36*
X292444Y277172D02*
X292169Y277136D01*
X291447Y276837D01*
X290827Y276361D01*
X290351Y275741D01*
X290052Y275019D01*
X290016Y274744D01*
X292444D01*
Y277172D01*
D02*
G37*
G36*
X220975Y275400D02*
X219350D01*
Y273776D01*
X219701Y273845D01*
X220423Y274327D01*
X220905Y275049D01*
X220975Y275400D01*
D02*
G37*
G36*
X208000Y276260D02*
X206376D01*
X206445Y275909D01*
X206927Y275187D01*
X207649Y274705D01*
X208000Y274636D01*
Y276260D01*
D02*
G37*
G36*
X210624D02*
X209000D01*
Y274636D01*
X209351Y274705D01*
X210072Y275187D01*
X210555Y275909D01*
X210624Y276260D01*
D02*
G37*
G36*
X155000Y251616D02*
X153996Y251484D01*
X153060Y251096D01*
X152257Y250480D01*
X151640Y249676D01*
X151253Y248740D01*
X151120Y247736D01*
X151253Y246732D01*
X151640Y245796D01*
X152257Y244993D01*
X153060Y244376D01*
X153996Y243989D01*
X155000Y243857D01*
X156004Y243989D01*
X156940Y244376D01*
X157743Y244993D01*
X158360Y245796D01*
X158747Y246732D01*
X158880Y247736D01*
X158747Y248740D01*
X158360Y249676D01*
X157743Y250480D01*
X156940Y251096D01*
X156004Y251484D01*
X155000Y251616D01*
D02*
G37*
G36*
X214000Y274374D02*
X213344Y274243D01*
X212788Y273872D01*
X212416Y273316D01*
X212286Y272660D01*
X212416Y272004D01*
X212788Y271448D01*
X212980Y271319D01*
Y256972D01*
X178353D01*
X177963Y256895D01*
X177632Y256674D01*
X174544Y253586D01*
X174400Y253614D01*
X173744Y253484D01*
X173188Y253112D01*
X172816Y252556D01*
X172686Y251900D01*
X172816Y251244D01*
X173188Y250688D01*
X173744Y250316D01*
X174400Y250186D01*
X175056Y250316D01*
X175612Y250688D01*
X175984Y251244D01*
X176114Y251900D01*
X176052Y252210D01*
X178775Y254933D01*
X213578D01*
X217834Y250676D01*
X217632Y250474D01*
X217411Y250143D01*
X217333Y249753D01*
X217411Y249363D01*
X217632Y249032D01*
X217963Y248811D01*
X218353Y248733D01*
X219316D01*
X219553Y248686D01*
X219790Y248733D01*
X250759D01*
X250888Y248541D01*
X251444Y248169D01*
X252100Y248039D01*
X252756Y248169D01*
X253312Y248541D01*
X253684Y249097D01*
X253814Y249753D01*
X253684Y250409D01*
X253312Y250965D01*
X252756Y251336D01*
X252100Y251467D01*
X251495Y251346D01*
X250920Y251922D01*
Y261759D01*
X251112Y261888D01*
X251484Y262444D01*
X251614Y263100D01*
X251484Y263756D01*
X251112Y264312D01*
X250556Y264684D01*
X249900Y264814D01*
X249244Y264684D01*
X248688Y264312D01*
X248316Y263756D01*
X248186Y263100D01*
X248316Y262444D01*
X248688Y261888D01*
X248880Y261759D01*
Y251500D01*
X248926Y251272D01*
X248680Y250861D01*
X248582Y250772D01*
X221193D01*
X221136Y251056D01*
X220765Y251612D01*
X220209Y251984D01*
X219553Y252114D01*
X219326Y252069D01*
X215020Y256375D01*
Y271319D01*
X215212Y271448D01*
X215584Y272004D01*
X215714Y272660D01*
X215584Y273316D01*
X215212Y273872D01*
X214656Y274243D01*
X214000Y274374D01*
D02*
G37*
G36*
X132500Y261458D02*
X131496Y261326D01*
X130560Y260939D01*
X129757Y260322D01*
X129140Y259519D01*
X128753Y258583D01*
X128620Y257579D01*
X128753Y256575D01*
X129140Y255639D01*
X129757Y254835D01*
X130560Y254219D01*
X131496Y253831D01*
X132500Y253699D01*
X133504Y253831D01*
X134440Y254219D01*
X135243Y254835D01*
X135860Y255639D01*
X136247Y256575D01*
X136380Y257579D01*
X136247Y258583D01*
X135860Y259519D01*
X135243Y260322D01*
X134440Y260939D01*
X133504Y261326D01*
X132500Y261458D01*
D02*
G37*
G36*
Y251616D02*
X131496Y251484D01*
X130560Y251096D01*
X129757Y250480D01*
X129140Y249676D01*
X128753Y248740D01*
X128620Y247736D01*
X128753Y246732D01*
X129140Y245796D01*
X129757Y244993D01*
X130560Y244376D01*
X131496Y243989D01*
X132500Y243857D01*
X133504Y243989D01*
X134440Y244376D01*
X135243Y244993D01*
X135860Y245796D01*
X136247Y246732D01*
X136380Y247736D01*
X136247Y248740D01*
X135860Y249676D01*
X135243Y250480D01*
X134440Y251096D01*
X133504Y251484D01*
X132500Y251616D01*
D02*
G37*
G36*
X209500Y232000D02*
X205500D01*
Y228000D01*
X209500D01*
Y232000D01*
D02*
G37*
G36*
X214500D02*
X210500D01*
Y228000D01*
X214500D01*
Y232000D01*
D02*
G37*
G36*
X265539D02*
X263000D01*
Y228461D01*
X263500D01*
X264280Y228616D01*
X264942Y229058D01*
X265384Y229720D01*
X265539Y230500D01*
Y232000D01*
D02*
G37*
G36*
X284800Y270714D02*
X284144Y270584D01*
X283588Y270212D01*
X283216Y269656D01*
X283086Y269000D01*
X283216Y268344D01*
X283588Y267788D01*
X283780Y267659D01*
Y264741D01*
X283588Y264612D01*
X283216Y264056D01*
X283086Y263400D01*
X283216Y262744D01*
X283588Y262188D01*
X284144Y261816D01*
X284800Y261686D01*
X285456Y261816D01*
X286012Y262188D01*
X286384Y262744D01*
X286514Y263400D01*
X286384Y264056D01*
X286012Y264612D01*
X285820Y264741D01*
Y267659D01*
X286012Y267788D01*
X286384Y268344D01*
X286514Y269000D01*
X286384Y269656D01*
X286012Y270212D01*
X285456Y270584D01*
X284800Y270714D01*
D02*
G37*
G36*
X309300Y273682D02*
X308399Y273564D01*
X307559Y273216D01*
X307137Y272892D01*
X307066Y272888D01*
X307007Y272822D01*
X306925Y272790D01*
X299170Y265334D01*
X298988Y265212D01*
X298616Y264656D01*
X298486Y264000D01*
X298616Y263344D01*
X298988Y262788D01*
X299544Y262416D01*
X300200Y262286D01*
X300856Y262416D01*
X300993Y262508D01*
X301029Y262510D01*
X310429Y266910D01*
X310460Y266943D01*
X311041Y267184D01*
X311762Y267738D01*
X312316Y268459D01*
X312664Y269299D01*
X312783Y270200D01*
X312664Y271101D01*
X312316Y271941D01*
X311762Y272662D01*
X311041Y273216D01*
X310201Y273564D01*
X309300Y273682D01*
D02*
G37*
G36*
X260250Y279414D02*
X259594Y279284D01*
X259038Y278912D01*
X258666Y278356D01*
X258536Y277700D01*
X258666Y277044D01*
X259038Y276488D01*
X259594Y276116D01*
X260250Y275986D01*
X260477Y276031D01*
X262980Y273527D01*
Y272950D01*
Y262962D01*
X262480Y262810D01*
X262212Y263212D01*
X261656Y263584D01*
X261000Y263714D01*
X260344Y263584D01*
X259788Y263212D01*
X259416Y262656D01*
X259286Y262000D01*
X259416Y261344D01*
X259788Y260788D01*
X259980Y260659D01*
Y251322D01*
X253778Y245120D01*
X202401D01*
X202156Y245284D01*
X201500Y245414D01*
X200844Y245284D01*
X200288Y244912D01*
X199916Y244356D01*
X199786Y243700D01*
X199916Y243044D01*
X200062Y242826D01*
X199795Y242326D01*
X171353D01*
X170426Y243253D01*
Y261900D01*
X170323Y262683D01*
X170109Y263199D01*
X170020Y263413D01*
X169540Y264040D01*
X164018Y269561D01*
X163392Y270042D01*
X163178Y270130D01*
X162662Y270344D01*
X161879Y270447D01*
X157375D01*
X156940Y270781D01*
X156004Y271169D01*
X155000Y271301D01*
X153996Y271169D01*
X153060Y270781D01*
X152257Y270165D01*
X151640Y269361D01*
X151253Y268425D01*
X151120Y267421D01*
X151253Y266417D01*
X151640Y265481D01*
X152257Y264678D01*
X153060Y264061D01*
X153996Y263674D01*
X155000Y263542D01*
X156004Y263674D01*
X156940Y264061D01*
X157375Y264395D01*
X160625D01*
X164374Y260647D01*
Y242000D01*
X164477Y241217D01*
X164691Y240701D01*
X164779Y240487D01*
X165260Y239860D01*
X167960Y237160D01*
X167960Y237160D01*
X168497Y236748D01*
X168515Y236403D01*
X168459Y236191D01*
X167983Y235994D01*
X167147Y235353D01*
X166506Y234517D01*
X166103Y233544D01*
X165965Y232500D01*
X166103Y231456D01*
X166506Y230483D01*
X167147Y229647D01*
X167983Y229006D01*
X168956Y228603D01*
X170000Y228466D01*
X171044Y228603D01*
X172017Y229006D01*
X172853Y229647D01*
X173494Y230483D01*
X173897Y231456D01*
X174035Y232500D01*
X173897Y233544D01*
X173494Y234517D01*
X172853Y235353D01*
X172304Y235774D01*
X172474Y236274D01*
X177526D01*
X177696Y235774D01*
X177147Y235353D01*
X176506Y234517D01*
X176103Y233544D01*
X175965Y232500D01*
X176103Y231456D01*
X176506Y230483D01*
X177147Y229647D01*
X177983Y229006D01*
X178956Y228603D01*
X180000Y228466D01*
X181044Y228603D01*
X182017Y229006D01*
X182853Y229647D01*
X183494Y230483D01*
X183897Y231456D01*
X184035Y232500D01*
X183897Y233544D01*
X183494Y234517D01*
X182853Y235353D01*
X182304Y235774D01*
X182474Y236274D01*
X187526D01*
X187696Y235774D01*
X187147Y235353D01*
X186506Y234517D01*
X186103Y233544D01*
X185966Y232500D01*
X186103Y231456D01*
X186506Y230483D01*
X187147Y229647D01*
X187983Y229006D01*
X188956Y228603D01*
X190000Y228466D01*
X191044Y228603D01*
X192017Y229006D01*
X192853Y229647D01*
X193494Y230483D01*
X193897Y231456D01*
X194035Y232500D01*
X193897Y233544D01*
X193494Y234517D01*
X192853Y235353D01*
X192304Y235774D01*
X192474Y236274D01*
X197526D01*
X197696Y235774D01*
X197147Y235353D01*
X196506Y234517D01*
X196103Y233544D01*
X195966Y232500D01*
X196103Y231456D01*
X196506Y230483D01*
X197147Y229647D01*
X197983Y229006D01*
X198956Y228603D01*
X200000Y228466D01*
X201044Y228603D01*
X202017Y229006D01*
X202853Y229647D01*
X203494Y230483D01*
X203897Y231456D01*
X204034Y232500D01*
X203897Y233544D01*
X203494Y234517D01*
X202853Y235353D01*
X202304Y235774D01*
X202474Y236274D01*
X205500D01*
Y233000D01*
X210000D01*
Y232500D01*
D01*
Y233000D01*
X214500D01*
Y236274D01*
X218880D01*
X218959Y236177D01*
X218858Y235508D01*
X218819Y235481D01*
X218487Y234985D01*
X218371Y234400D01*
Y230400D01*
X218487Y229815D01*
X218819Y229319D01*
X219315Y228987D01*
X219900Y228871D01*
X221900D01*
X222485Y228987D01*
X222981Y229319D01*
X223099Y229495D01*
X223701D01*
X223819Y229319D01*
X224315Y228987D01*
X224900Y228871D01*
X226900D01*
X227485Y228987D01*
X227981Y229319D01*
X228099Y229495D01*
X228701D01*
X228819Y229319D01*
X229315Y228987D01*
X229900Y228871D01*
X231900D01*
X232485Y228987D01*
X232981Y229319D01*
X233099Y229495D01*
X233701D01*
X233819Y229319D01*
X234315Y228987D01*
X234900Y228871D01*
X236900D01*
X237485Y228987D01*
X237981Y229319D01*
X238099Y229495D01*
X238701D01*
X238819Y229319D01*
X239315Y228987D01*
X239900Y228871D01*
X241900D01*
X242485Y228987D01*
X242981Y229319D01*
X243099Y229495D01*
X243701D01*
X243819Y229319D01*
X244315Y228987D01*
X244900Y228871D01*
X246900D01*
X247485Y228987D01*
X247981Y229319D01*
X248099Y229495D01*
X248701D01*
X248819Y229319D01*
X249315Y228987D01*
X249900Y228871D01*
X251900D01*
X252485Y228987D01*
X252981Y229319D01*
X253313Y229815D01*
X253429Y230400D01*
Y234400D01*
X253313Y234985D01*
X252981Y235481D01*
X252942Y235508D01*
X252841Y236177D01*
X252920Y236274D01*
X255880D01*
X255959Y236177D01*
X255858Y235508D01*
X255819Y235481D01*
X255487Y234985D01*
X255371Y234400D01*
Y230400D01*
X255487Y229815D01*
X255819Y229319D01*
X256315Y228987D01*
X256900Y228871D01*
X258900D01*
X259485Y228987D01*
X259699Y229130D01*
X260058Y229058D01*
X260720Y228616D01*
X261500Y228461D01*
X262000D01*
Y232500D01*
X262500D01*
Y233000D01*
X265539D01*
Y234500D01*
X265384Y235280D01*
X265054Y235774D01*
X265276Y236274D01*
X295147D01*
X298060Y233360D01*
X298687Y232879D01*
X299417Y232577D01*
X300200Y232474D01*
X300983Y232577D01*
X301713Y232879D01*
X302340Y233360D01*
X302820Y233987D01*
X303123Y234717D01*
X303226Y235500D01*
X303123Y236283D01*
X302820Y237013D01*
X302340Y237640D01*
X298540Y241440D01*
X297913Y241920D01*
X297699Y242009D01*
X297183Y242223D01*
X296400Y242326D01*
X203480D01*
X203203Y242825D01*
X203356Y243080D01*
X254200D01*
X254590Y243158D01*
X254921Y243379D01*
X261721Y250179D01*
X261942Y250510D01*
X262020Y250900D01*
Y260659D01*
X262212Y260788D01*
X262480Y261190D01*
X262980Y261038D01*
Y246341D01*
X262788Y246212D01*
X262416Y245656D01*
X262286Y245000D01*
X262416Y244344D01*
X262788Y243788D01*
X263344Y243416D01*
X264000Y243286D01*
X264656Y243416D01*
X265212Y243788D01*
X265584Y244344D01*
X265714Y245000D01*
X265584Y245656D01*
X265212Y246212D01*
X265020Y246341D01*
Y265988D01*
X265520Y266140D01*
X265688Y265888D01*
X266244Y265516D01*
X266900Y265386D01*
X267556Y265516D01*
X268112Y265888D01*
X268241Y266080D01*
X274778D01*
X284764Y256094D01*
X284686Y255700D01*
X284816Y255044D01*
X285188Y254488D01*
X285744Y254116D01*
X286400Y253986D01*
X287056Y254116D01*
X287612Y254488D01*
X287984Y255044D01*
X288114Y255700D01*
X287984Y256356D01*
X287612Y256912D01*
X287056Y257284D01*
X286400Y257414D01*
X286340Y257402D01*
X275921Y267821D01*
X275590Y268042D01*
X275200Y268120D01*
X270015D01*
X269815Y268620D01*
X269942Y268810D01*
X270020Y269200D01*
Y273659D01*
X270212Y273788D01*
X270584Y274344D01*
X270714Y275000D01*
X270584Y275656D01*
X270212Y276212D01*
X269656Y276584D01*
X269000Y276714D01*
X268344Y276584D01*
X267788Y276212D01*
X267416Y275656D01*
X267286Y275000D01*
X267416Y274344D01*
X267788Y273788D01*
X267980Y273659D01*
Y269622D01*
X267127Y268769D01*
X266900Y268814D01*
X266244Y268684D01*
X265688Y268312D01*
X265520Y268060D01*
X265020Y268212D01*
Y272950D01*
Y273950D01*
X264942Y274340D01*
X264721Y274671D01*
X261918Y277473D01*
X261964Y277700D01*
X261833Y278356D01*
X261462Y278912D01*
X260906Y279284D01*
X260250Y279414D01*
D02*
G37*
G36*
X293633Y259000D02*
X293200D01*
Y258876D01*
X293551Y258945D01*
X293633Y259000D01*
D02*
G37*
G36*
X155000Y261458D02*
X153996Y261326D01*
X153060Y260939D01*
X152257Y260322D01*
X151640Y259519D01*
X151253Y258583D01*
X151120Y257579D01*
X151253Y256575D01*
X151640Y255639D01*
X152257Y254835D01*
X153060Y254219D01*
X153996Y253831D01*
X155000Y253699D01*
X156004Y253831D01*
X156940Y254219D01*
X157743Y254835D01*
X158360Y255639D01*
X158747Y256575D01*
X158880Y257579D01*
X158747Y258583D01*
X158360Y259519D01*
X157743Y260322D01*
X156940Y260939D01*
X156004Y261326D01*
X155000Y261458D01*
D02*
G37*
G36*
X312753Y263653D02*
X305847D01*
Y256747D01*
X312753D01*
Y263653D01*
D02*
G37*
G36*
X292200Y259000D02*
X291767D01*
X291849Y258945D01*
X292200Y258876D01*
Y259000D01*
D02*
G37*
G36*
X254000Y277400D02*
X252376D01*
X252445Y277049D01*
X252927Y276327D01*
X253649Y275845D01*
X254000Y275776D01*
Y277400D01*
D02*
G37*
G36*
X281700Y286483D02*
X280799Y286364D01*
X279959Y286016D01*
X279238Y285462D01*
X278684Y284741D01*
X278336Y283901D01*
X278218Y283000D01*
X278336Y282099D01*
X278684Y281259D01*
X279238Y280538D01*
X279959Y279984D01*
X280799Y279636D01*
X281700Y279518D01*
X282601Y279636D01*
X283441Y279984D01*
X284162Y280538D01*
X284716Y281259D01*
X285064Y282099D01*
X285182Y283000D01*
X285064Y283901D01*
X284716Y284741D01*
X284162Y285462D01*
X283441Y286016D01*
X282601Y286364D01*
X281700Y286483D01*
D02*
G37*
G36*
X291700D02*
X290799Y286364D01*
X289959Y286016D01*
X289237Y285462D01*
X288684Y284741D01*
X288336Y283901D01*
X288217Y283000D01*
X288336Y282099D01*
X288684Y281259D01*
X289237Y280538D01*
X289959Y279984D01*
X290799Y279636D01*
X291700Y279518D01*
X292601Y279636D01*
X293441Y279984D01*
X294163Y280538D01*
X294716Y281259D01*
X295064Y282099D01*
X295182Y283000D01*
X295064Y283901D01*
X294716Y284741D01*
X294163Y285462D01*
X293441Y286016D01*
X292601Y286364D01*
X291700Y286483D01*
D02*
G37*
G36*
X230453Y282072D02*
X230102Y282002D01*
X229380Y281520D01*
X228898Y280798D01*
X228828Y280447D01*
X230453D01*
Y282072D01*
D02*
G37*
G36*
X305653Y282500D02*
X302200D01*
Y279047D01*
X305653D01*
Y282500D01*
D02*
G37*
G36*
X254000Y280024D02*
X253649Y279955D01*
X252927Y279472D01*
X252445Y278751D01*
X252376Y278400D01*
X254000D01*
Y280024D01*
D02*
G37*
G36*
X255000D02*
Y278400D01*
X256624D01*
X256555Y278751D01*
X256072Y279472D01*
X255351Y279955D01*
X255000Y280024D01*
D02*
G37*
G36*
X301200Y282500D02*
X297747D01*
Y279047D01*
X301200D01*
Y282500D01*
D02*
G37*
G36*
Y286953D02*
X297747D01*
Y283500D01*
X301200D01*
Y286953D01*
D02*
G37*
G36*
X305653D02*
X302200D01*
Y283500D01*
X305653D01*
Y286953D01*
D02*
G37*
G36*
X189300Y285424D02*
X188949Y285355D01*
X188227Y284873D01*
X187745Y284151D01*
X187676Y283800D01*
X189300D01*
Y285424D01*
D02*
G37*
G36*
X272653Y282624D02*
Y281000D01*
X274277D01*
X274207Y281351D01*
X273725Y282072D01*
X273004Y282555D01*
X272653Y282624D01*
D02*
G37*
G36*
X231453Y282072D02*
Y280447D01*
X233077D01*
X233007Y280798D01*
X232525Y281520D01*
X231804Y282002D01*
X231453Y282072D01*
D02*
G37*
G36*
X191924Y282800D02*
X187676D01*
X187745Y282449D01*
X188213Y281750D01*
X187745Y281051D01*
X187676Y280700D01*
X191924D01*
X191855Y281051D01*
X191387Y281750D01*
X191855Y282449D01*
X191924Y282800D01*
D02*
G37*
G36*
X271653Y282624D02*
X271302Y282555D01*
X270580Y282072D01*
X270098Y281351D01*
X270028Y281000D01*
X271653D01*
Y282624D01*
D02*
G37*
G36*
X190300Y285424D02*
Y283800D01*
X191924D01*
X191855Y284151D01*
X191373Y284873D01*
X190651Y285355D01*
X190300Y285424D01*
D02*
G37*
G36*
X209000Y278884D02*
Y277260D01*
X210624D01*
X210555Y277611D01*
X210072Y278332D01*
X209351Y278814D01*
X209000Y278884D01*
D02*
G37*
G36*
X132000Y281582D02*
X131365Y281498D01*
X130308Y281060D01*
X129400Y280364D01*
X128703Y279456D01*
X128265Y278398D01*
X128182Y277764D01*
X132000D01*
Y281582D01*
D02*
G37*
G36*
X133000D02*
Y277764D01*
X136818D01*
X136735Y278398D01*
X136297Y279456D01*
X135600Y280364D01*
X134692Y281060D01*
X133635Y281498D01*
X133000Y281582D01*
D02*
G37*
G36*
X208000Y278884D02*
X207649Y278814D01*
X206927Y278332D01*
X206445Y277611D01*
X206376Y277260D01*
X208000D01*
Y278884D01*
D02*
G37*
G36*
X256624Y277400D02*
X255000D01*
Y275776D01*
X255351Y275845D01*
X256072Y276327D01*
X256555Y277049D01*
X256624Y277400D01*
D02*
G37*
G36*
X218350Y278024D02*
X217999Y277955D01*
X217278Y277472D01*
X216796Y276751D01*
X216726Y276400D01*
X218350D01*
Y278024D01*
D02*
G37*
G36*
X219350D02*
Y276400D01*
X220975D01*
X220905Y276751D01*
X220423Y277472D01*
X219701Y277955D01*
X219350Y278024D01*
D02*
G37*
G36*
X233077Y279447D02*
X231453D01*
Y277823D01*
X231804Y277893D01*
X232525Y278375D01*
X233007Y279096D01*
X233077Y279447D01*
D02*
G37*
G36*
X271653Y280000D02*
X270028D01*
X270098Y279649D01*
X270580Y278927D01*
X271302Y278445D01*
X271653Y278376D01*
Y280000D01*
D02*
G37*
G36*
X274277D02*
X272653D01*
Y278376D01*
X273004Y278445D01*
X273725Y278927D01*
X274207Y279649D01*
X274277Y280000D01*
D02*
G37*
G36*
X230453Y279447D02*
X228828D01*
X228898Y279096D01*
X229380Y278375D01*
X230102Y277893D01*
X230453Y277823D01*
Y279447D01*
D02*
G37*
G36*
X154500Y281582D02*
X153865Y281498D01*
X152808Y281060D01*
X151900Y280364D01*
X151203Y279456D01*
X150765Y278398D01*
X150682Y277764D01*
X154500D01*
Y281582D01*
D02*
G37*
G36*
X155500D02*
Y277764D01*
X159318D01*
X159235Y278398D01*
X158797Y279456D01*
X158100Y280364D01*
X157192Y281060D01*
X156135Y281498D01*
X155500Y281582D01*
D02*
G37*
G36*
X191924Y279700D02*
X187676D01*
X187745Y279349D01*
X188146Y278750D01*
X187745Y278151D01*
X187676Y277800D01*
X191924D01*
X191855Y278151D01*
X191454Y278750D01*
X191855Y279349D01*
X191924Y279700D01*
D02*
G37*
%LPD*%
G36*
X309000Y271800D02*
X310200Y267400D01*
X300800Y263000D01*
Y263600D01*
X299500Y264900D01*
X307300Y272400D01*
X309000Y271800D01*
D02*
G37*
D24*
X269000Y269200D02*
Y275000D01*
X266900Y267100D02*
X269000Y269200D01*
X264000Y272950D02*
Y273950D01*
Y245000D02*
Y272950D01*
X260250Y277700D02*
X264000Y273950D01*
X254200Y244100D02*
X261000Y250900D01*
X201900Y244100D02*
X254200D01*
X201500Y243700D02*
X201900Y244100D01*
X291700Y283000D02*
X292800D01*
X275200Y267100D02*
X286400Y255900D01*
Y255700D02*
Y255900D01*
X266900Y267100D02*
X275200D01*
X251647Y249753D02*
X252100D01*
X218353D02*
X251647D01*
X174400Y251900D02*
Y252000D01*
X178353Y255953D01*
X214000D01*
X219553Y250400D01*
X218353Y249753D02*
X219000Y250400D01*
X219553D01*
X261000Y250900D02*
Y262000D01*
X284800Y263400D02*
X285000Y263200D01*
X284800Y263400D02*
Y269000D01*
X249900Y251500D02*
X251647Y249753D01*
X218700Y275900D02*
X218850D01*
X249900Y251500D02*
Y263100D01*
X214000Y255953D02*
Y272660D01*
D25*
X218850Y275900D02*
Y284550D01*
X208500Y276760D02*
Y284500D01*
X230953Y279947D02*
Y284547D01*
X254500Y277900D02*
Y284500D01*
D26*
X278300Y274700D02*
X293400D01*
X268300Y284700D02*
X278300Y274700D01*
X162436Y284700D02*
X268300D01*
X296400Y239300D02*
X300200Y235500D01*
X170100Y239300D02*
X296400D01*
X155000Y277264D02*
X162436Y284700D01*
X155000Y267421D02*
X161879D01*
X167400Y261900D01*
Y242000D02*
X170100Y239300D01*
X167400Y242000D02*
Y261900D01*
D28*
X170000Y232500D02*
D03*
X190000D02*
D03*
X200000D02*
D03*
X180000D02*
D03*
D29*
X210000D02*
D03*
D30*
X155000Y247736D02*
D03*
Y257579D02*
D03*
Y267421D02*
D03*
Y277264D02*
D03*
X132500D02*
D03*
Y267421D02*
D03*
Y257579D02*
D03*
Y247736D02*
D03*
D31*
X262500Y232500D02*
D03*
X257900Y232400D02*
D03*
X220900D02*
D03*
X225900D02*
D03*
X230900D02*
D03*
X235900D02*
D03*
X240900D02*
D03*
X245900D02*
D03*
X250900D02*
D03*
D32*
X309300Y260200D02*
D03*
D33*
Y270200D02*
D03*
X291700Y283000D02*
D03*
X281700D02*
D03*
D34*
X301700D02*
D03*
D35*
X189800Y277300D02*
D03*
Y280200D02*
D03*
Y283300D02*
D03*
X300200Y264000D02*
D03*
X269000Y275000D02*
D03*
X272153Y280500D02*
D03*
X292700Y261000D02*
D03*
Y264000D02*
D03*
Y267000D02*
D03*
Y270000D02*
D03*
X264000Y245000D02*
D03*
X230953Y279947D02*
D03*
X254500Y277900D02*
D03*
X286400Y255700D02*
D03*
X266900Y267100D02*
D03*
X174400Y251900D02*
D03*
X260250Y277700D02*
D03*
X201500Y243700D02*
D03*
X219553Y250400D02*
D03*
X284800Y263400D02*
D03*
Y269000D02*
D03*
X252100Y249753D02*
D03*
X218850Y275900D02*
D03*
X208500Y276760D02*
D03*
X261000Y262000D02*
D03*
X249900Y263100D02*
D03*
X214000Y272660D02*
D03*
D36*
X292944Y274244D02*
D03*
X300200Y235500D02*
D03*
D37*
X189800Y279650D02*
D03*
M02*
