G04 Layer_Physical_Order=1*
G04 Layer_Color=255*
%FSLAX25Y25*%
%MOIN*%
G70*
G01*
G75*
%ADD10R,0.09449X0.09449*%
%ADD11R,0.03150X0.03799*%
%ADD12R,0.03937X0.03543*%
%ADD13R,0.05709X0.02165*%
%ADD14R,0.03543X0.03150*%
%ADD15R,0.03799X0.03150*%
%ADD16R,0.03543X0.03937*%
%ADD17R,0.05512X0.02362*%
%ADD18R,0.05512X0.04528*%
%ADD19R,0.01969X0.00984*%
%ADD20R,0.03543X0.07874*%
%ADD21R,0.16142X0.16142*%
%ADD22R,0.01181X0.02953*%
%ADD23R,0.02953X0.01181*%
%ADD24C,0.01000*%
%ADD25C,0.02000*%
%ADD26C,0.05000*%
%ADD27C,0.01180*%
%ADD28C,0.07000*%
%ADD29R,0.07000X0.07000*%
%ADD30C,0.06693*%
G04:AMPARAMS|DCode=31|XSize=40mil|YSize=60mil|CornerRadius=10mil|HoleSize=0mil|Usage=FLASHONLY|Rotation=180.000|XOffset=0mil|YOffset=0mil|HoleType=Round|Shape=RoundedRectangle|*
%AMROUNDEDRECTD31*
21,1,0.04000,0.04000,0,0,180.0*
21,1,0.02000,0.06000,0,0,180.0*
1,1,0.02000,-0.01000,0.02000*
1,1,0.02000,0.01000,0.02000*
1,1,0.02000,0.01000,-0.02000*
1,1,0.02000,-0.01000,-0.02000*
%
%ADD31ROUNDEDRECTD31*%
%ADD32R,0.05906X0.05906*%
%ADD33C,0.05906*%
%ADD34R,0.05906X0.05906*%
%ADD35C,0.02362*%
%ADD36C,0.03937*%
G36*
X300100Y265100D02*
X300200Y263000D01*
Y262800D01*
X297200Y263700D01*
Y264700D01*
X300000Y265059D01*
X300098Y265158D01*
X300100Y265100D01*
D02*
G37*
G36*
X309100Y267600D02*
X303445Y268012D01*
X299508Y267815D01*
X297400Y267650D01*
X297380Y268640D01*
X300250Y270900D01*
X303450Y272160D01*
X309100Y273000D01*
Y267600D01*
D02*
G37*
G36*
X269176Y268586D02*
Y258137D01*
X269176Y258137D01*
X269176D01*
X269103Y257645D01*
X268541Y257083D01*
X266669D01*
Y259319D01*
X262449D01*
X262137Y259693D01*
X262278Y260151D01*
X262775D01*
Y264950D01*
X258625D01*
Y260151D01*
X259296D01*
X259487Y259689D01*
X258849Y259051D01*
X248402D01*
Y259500D01*
X245925D01*
Y260500D01*
X248402D01*
Y260949D01*
X249468D01*
X249859Y261027D01*
X250189Y261247D01*
X250341Y261474D01*
X250556Y261516D01*
X251112Y261888D01*
X251484Y262444D01*
X251614Y262495D01*
X251632Y262499D01*
X252132Y262103D01*
Y259676D01*
X254600D01*
Y262447D01*
Y265219D01*
X252514D01*
X252132Y265219D01*
X252014Y265670D01*
Y266491D01*
X252132Y266572D01*
X252631Y266308D01*
Y266081D01*
X257569D01*
Y267480D01*
X258625D01*
Y266450D01*
X262775D01*
Y267830D01*
X264628D01*
X265214Y267244D01*
X265186Y267100D01*
X265316Y266444D01*
X265688Y265888D01*
X266244Y265516D01*
X266900Y265386D01*
X267556Y265516D01*
X268112Y265888D01*
X268484Y266444D01*
X268614Y267100D01*
X268484Y267756D01*
X268112Y268312D01*
X267860Y268480D01*
X268012Y268980D01*
X268921D01*
X269176Y268586D01*
D02*
G37*
G36*
X221598Y254594D02*
X224075D01*
Y253594D01*
X221598D01*
Y252869D01*
X217281D01*
Y247932D01*
X221824D01*
Y249380D01*
X222349D01*
X222739Y249458D01*
X223070Y249679D01*
X224426Y251035D01*
X225929D01*
Y250929D01*
X226035D01*
Y249426D01*
X223629Y247020D01*
X216632D01*
X216419Y247431D01*
X216419Y247520D01*
Y249900D01*
X213647D01*
Y250400D01*
X213147D01*
Y253368D01*
X211518D01*
X211310Y253869D01*
X212485Y255043D01*
X221598D01*
Y254594D01*
D02*
G37*
G36*
X304429Y267224D02*
X305400Y266600D01*
X311700Y263000D01*
X309400Y262600D01*
X309100D01*
Y257600D01*
Y257300D01*
X305260Y257280D01*
X297342Y261811D01*
Y262697D01*
X298130D01*
X299400Y262300D01*
X302100D01*
Y264200D01*
X301700Y265000D01*
X301000Y265600D01*
X300300Y265700D01*
X297400Y265690D01*
X297372Y266633D01*
X297146Y266634D01*
X297520Y266900D01*
X302461Y267323D01*
X304429Y267224D01*
D02*
G37*
G36*
X315000Y227500D02*
X120000D01*
Y289000D01*
X248396D01*
X248553Y288590D01*
X248558Y288500D01*
X246779Y286721D01*
X246558Y286390D01*
X246480Y286000D01*
Y278922D01*
X244775Y277217D01*
X244275Y277424D01*
Y281850D01*
X243210D01*
X243142Y282190D01*
X242921Y282521D01*
X242554Y282888D01*
X242745Y283350D01*
X244275D01*
Y288149D01*
X240125D01*
Y286872D01*
X238972D01*
Y287928D01*
X234428D01*
Y283870D01*
X233272D01*
Y287928D01*
X228728D01*
Y287020D01*
X227549D01*
Y288075D01*
X222750D01*
Y284249D01*
X222250Y284042D01*
X221250Y285042D01*
Y288075D01*
X216451D01*
Y284942D01*
X215228Y283720D01*
X214422D01*
X213181Y284961D01*
X212850Y285182D01*
X212460Y285260D01*
X211756D01*
Y287004D01*
X205244D01*
Y284460D01*
X204068D01*
Y285524D01*
X199132D01*
Y284460D01*
X197879D01*
Y285023D01*
X191170D01*
X191170Y285023D01*
Y285023D01*
X190779Y285269D01*
X190651Y285355D01*
X190300Y285424D01*
Y283300D01*
X189300D01*
Y285424D01*
X188949Y285355D01*
X188821Y285269D01*
X188430Y285023D01*
Y285023D01*
X188430Y285023D01*
X181721D01*
Y284229D01*
X181619Y284161D01*
X179668Y282210D01*
X179464Y282239D01*
X179168Y282387D01*
Y283853D01*
X176700D01*
Y281581D01*
X178839D01*
X179206Y281474D01*
X179321Y281144D01*
X179321Y281144D01*
Y279519D01*
X178821Y279236D01*
X178668Y279327D01*
Y280719D01*
X173732D01*
Y278979D01*
X172056D01*
Y279924D01*
X165544D01*
Y275346D01*
X159029Y268831D01*
X158539Y268929D01*
X158360Y269361D01*
X157743Y270165D01*
X156940Y270781D01*
X156004Y271169D01*
X155000Y271301D01*
X153996Y271169D01*
X153060Y270781D01*
X152625Y270447D01*
X134875D01*
X134440Y270781D01*
X133504Y271169D01*
X132500Y271301D01*
X131496Y271169D01*
X130560Y270781D01*
X129757Y270165D01*
X129140Y269361D01*
X128753Y268425D01*
X128620Y267421D01*
X128753Y266417D01*
X129140Y265481D01*
X129757Y264678D01*
X130560Y264061D01*
X131496Y263674D01*
X132500Y263542D01*
X133504Y263674D01*
X134440Y264061D01*
X134875Y264395D01*
X152625D01*
X153060Y264061D01*
X153996Y263674D01*
X155000Y263542D01*
X156004Y263674D01*
X156940Y264061D01*
X157743Y264678D01*
X158360Y265481D01*
X158741Y266402D01*
X159061D01*
X159452Y266479D01*
X159782Y266700D01*
X167478Y274396D01*
X172056D01*
Y276940D01*
X173732D01*
Y276176D01*
X178668D01*
X178668Y276176D01*
Y276176D01*
X179010Y275848D01*
X179619Y275239D01*
X179950Y275018D01*
X180340Y274940D01*
X181721D01*
Y274377D01*
X188430D01*
Y275062D01*
X188871Y275298D01*
X188949Y275245D01*
X189300Y275176D01*
Y277300D01*
X190300D01*
Y275176D01*
X190651Y275245D01*
X190729Y275298D01*
X191170Y275062D01*
Y274377D01*
X197879D01*
Y277542D01*
X191976D01*
X191855Y278151D01*
X191454Y278750D01*
X191855Y279349D01*
X191924Y279700D01*
X189800D01*
Y280700D01*
X191924D01*
X191855Y281051D01*
X191650Y281358D01*
X191917Y281857D01*
X197879D01*
Y282421D01*
X199132D01*
Y280981D01*
X204068D01*
Y282421D01*
X205244D01*
Y281476D01*
X211756D01*
Y282795D01*
X212256Y283002D01*
X212980Y282278D01*
Y274237D01*
X212756Y274068D01*
X212256Y274318D01*
Y276260D01*
X209000D01*
Y273496D01*
X211981D01*
X211981Y273496D01*
X212362Y273040D01*
X212286Y272660D01*
X212416Y272004D01*
X212574Y271768D01*
X212306Y271269D01*
X210276D01*
Y268800D01*
X213047D01*
Y267800D01*
X210276D01*
Y265810D01*
X209776Y265603D01*
X206658Y268721D01*
X206327Y268942D01*
X205937Y269020D01*
X203789D01*
Y269681D01*
X197277D01*
Y266319D01*
X203789D01*
Y266980D01*
X205515D01*
X209279Y263216D01*
X209610Y262995D01*
X210000Y262917D01*
X210768D01*
X210976Y262417D01*
X203239Y254681D01*
X197277D01*
Y251372D01*
X196886Y251056D01*
X196520Y251422D01*
Y256139D01*
X196784Y256346D01*
X197277Y256319D01*
Y256319D01*
X203789D01*
Y259681D01*
X201553D01*
Y261319D01*
X203789D01*
Y264681D01*
X197277D01*
Y261319D01*
X199513D01*
Y259681D01*
X197277D01*
Y259020D01*
X196800D01*
X196410Y258942D01*
X196079Y258721D01*
X194779Y257421D01*
X194558Y257090D01*
X194480Y256700D01*
Y251000D01*
X194558Y250610D01*
X194779Y250279D01*
X195976Y249081D01*
X195785Y248620D01*
X192700D01*
X192310Y248542D01*
X191979Y248321D01*
X188286Y244628D01*
X187824Y244820D01*
Y246400D01*
X185553D01*
Y243932D01*
X186936D01*
X187128Y243470D01*
X180232Y236574D01*
X180000Y236620D01*
X179610Y236542D01*
X179500Y236469D01*
X178956Y236397D01*
X177983Y235994D01*
X177147Y235353D01*
X176506Y234517D01*
X176103Y233544D01*
X175965Y232500D01*
X176103Y231456D01*
X176506Y230483D01*
X177147Y229647D01*
X177983Y229006D01*
X178956Y228603D01*
X180000Y228466D01*
X181044Y228603D01*
X182017Y229006D01*
X182853Y229647D01*
X183494Y230483D01*
X183897Y231456D01*
X184035Y232500D01*
X183897Y233544D01*
X183494Y234517D01*
X182853Y235353D01*
X182612Y235538D01*
X182579Y236037D01*
X193122Y246580D01*
X194585D01*
X194776Y246118D01*
X189279Y240621D01*
X189058Y240290D01*
X188980Y239900D01*
Y236400D01*
X188956Y236397D01*
X187983Y235994D01*
X187147Y235353D01*
X186506Y234517D01*
X186103Y233544D01*
X185966Y232500D01*
X186103Y231456D01*
X186506Y230483D01*
X187147Y229647D01*
X187983Y229006D01*
X188956Y228603D01*
X190000Y228466D01*
X191044Y228603D01*
X192017Y229006D01*
X192853Y229647D01*
X193494Y230483D01*
X193897Y231456D01*
X194035Y232500D01*
X193897Y233544D01*
X193494Y234517D01*
X192853Y235353D01*
X192017Y235994D01*
X191044Y236397D01*
X191020Y236400D01*
Y239478D01*
X196522Y244980D01*
X199732D01*
X200000Y244480D01*
X199916Y244356D01*
X199786Y243700D01*
X199831Y243473D01*
X199279Y242921D01*
X199058Y242590D01*
X198980Y242200D01*
Y237200D01*
Y236400D01*
X198956Y236397D01*
X197983Y235994D01*
X197147Y235353D01*
X196506Y234517D01*
X196103Y233544D01*
X195966Y232500D01*
X196103Y231456D01*
X196506Y230483D01*
X197147Y229647D01*
X197983Y229006D01*
X198956Y228603D01*
X200000Y228466D01*
X201044Y228603D01*
X202017Y229006D01*
X202853Y229647D01*
X203494Y230483D01*
X203897Y231456D01*
X204034Y232500D01*
X203897Y233544D01*
X203494Y234517D01*
X202853Y235353D01*
X202017Y235994D01*
X201044Y236397D01*
X201020Y236400D01*
Y237200D01*
Y241645D01*
X201427Y242000D01*
X201500Y241986D01*
X202156Y242116D01*
X202712Y242488D01*
X203084Y243044D01*
X203214Y243700D01*
X203084Y244356D01*
X203000Y244480D01*
X203268Y244980D01*
X224051D01*
X224441Y245058D01*
X224772Y245279D01*
X226591Y247098D01*
X227449D01*
X227657Y246598D01*
X220179Y239121D01*
X219958Y238790D01*
X219880Y238400D01*
Y235926D01*
X219315Y235813D01*
X218819Y235481D01*
X218487Y234985D01*
X218371Y234400D01*
Y230400D01*
X218487Y229815D01*
X218819Y229319D01*
X219315Y228987D01*
X219900Y228871D01*
X221900D01*
X222485Y228987D01*
X222981Y229319D01*
X223099Y229495D01*
X223701D01*
X223819Y229319D01*
X224315Y228987D01*
X224900Y228871D01*
X226900D01*
X227485Y228987D01*
X227981Y229319D01*
X228099Y229495D01*
X228701D01*
X228819Y229319D01*
X229315Y228987D01*
X229900Y228871D01*
X231900D01*
X232485Y228987D01*
X232981Y229319D01*
X233099Y229495D01*
X233701D01*
X233819Y229319D01*
X234315Y228987D01*
X234900Y228871D01*
X236900D01*
X237485Y228987D01*
X237981Y229319D01*
X238099Y229495D01*
X238701D01*
X238819Y229319D01*
X239315Y228987D01*
X239900Y228871D01*
X241900D01*
X242485Y228987D01*
X242981Y229319D01*
X243099Y229495D01*
X243701D01*
X243819Y229319D01*
X244315Y228987D01*
X244900Y228871D01*
X246900D01*
X247485Y228987D01*
X247981Y229319D01*
X248099Y229495D01*
X248701D01*
X248819Y229319D01*
X249315Y228987D01*
X249900Y228871D01*
X251900D01*
X252485Y228987D01*
X252981Y229319D01*
X253313Y229815D01*
X253429Y230400D01*
Y234400D01*
X253313Y234985D01*
X252981Y235481D01*
X252485Y235813D01*
X251920Y235926D01*
Y236600D01*
X251842Y236990D01*
X251621Y237321D01*
X242805Y246136D01*
X242997Y246598D01*
X244465D01*
Y248575D01*
X242874D01*
Y249575D01*
X244465D01*
Y251035D01*
X247902D01*
Y251106D01*
X248692D01*
X249232Y250567D01*
Y247481D01*
X252930D01*
X253330Y247081D01*
X253139Y246619D01*
X252200D01*
Y243847D01*
Y241076D01*
X254080D01*
Y239900D01*
X254158Y239510D01*
X254379Y239179D01*
X256880Y236678D01*
Y235926D01*
X256315Y235813D01*
X255819Y235481D01*
X255487Y234985D01*
X255371Y234400D01*
Y230400D01*
X255487Y229815D01*
X255819Y229319D01*
X256315Y228987D01*
X256900Y228871D01*
X258900D01*
X259485Y228987D01*
X259699Y229130D01*
X260058Y229058D01*
X260720Y228616D01*
X261500Y228461D01*
X262000D01*
Y232500D01*
Y236539D01*
X261500D01*
X260720Y236384D01*
X260058Y235942D01*
X260018Y235882D01*
X259528Y235785D01*
X259485Y235813D01*
X258920Y235926D01*
Y237100D01*
X258842Y237490D01*
X258621Y237821D01*
X256120Y240322D01*
Y243676D01*
X257800D01*
Y246447D01*
X258300D01*
Y246947D01*
X261268D01*
Y248370D01*
X263700D01*
Y251142D01*
X264200D01*
Y251642D01*
X267168D01*
Y253075D01*
X268383D01*
X269733Y251725D01*
X269542Y251263D01*
X269176D01*
Y241020D01*
X269176Y240814D01*
X268798Y240520D01*
X268798Y240520D01*
X268222D01*
X265189Y243553D01*
X265212Y243788D01*
X265584Y244344D01*
X265714Y245000D01*
X265584Y245656D01*
X265212Y246212D01*
X264656Y246584D01*
X264000Y246714D01*
X263344Y246584D01*
X262788Y246212D01*
X262416Y245656D01*
X262286Y245000D01*
X262416Y244344D01*
X262788Y243788D01*
X262980Y243659D01*
Y243300D01*
X263058Y242910D01*
X263279Y242579D01*
X267079Y238779D01*
X267410Y238558D01*
X267800Y238480D01*
X282200D01*
X282590Y238558D01*
X282921Y238779D01*
X284119Y239977D01*
X289630D01*
Y242717D01*
X289630Y243143D01*
X290099Y243217D01*
X290130D01*
Y244800D01*
X282421D01*
Y243217D01*
X282452D01*
X282921Y243143D01*
X282921Y242717D01*
Y241663D01*
X281778Y240520D01*
X280002D01*
X279624Y240814D01*
X279624Y241020D01*
Y251263D01*
X273079D01*
X269634Y254708D01*
X269609Y255128D01*
X269661Y255327D01*
X269684Y255342D01*
X272479Y258137D01*
X279624D01*
Y264280D01*
X280086Y264472D01*
X281879Y262679D01*
X282210Y262458D01*
X282600Y262380D01*
X283459D01*
X283588Y262188D01*
X284144Y261816D01*
X284800Y261686D01*
X285456Y261816D01*
X286012Y262188D01*
X286384Y262744D01*
X286473Y263196D01*
X287476D01*
Y261255D01*
Y260236D01*
X285826Y258587D01*
X285747Y258469D01*
X282776D01*
Y253532D01*
X287319D01*
Y254291D01*
X287328Y254298D01*
X287612Y254488D01*
X287657Y254556D01*
X287697Y254587D01*
X288181Y254440D01*
Y253031D01*
X290453D01*
Y256000D01*
X291453D01*
Y253031D01*
X293232D01*
X293724Y253031D01*
X293724Y253031D01*
X294190Y253103D01*
X294195Y253103D01*
X294224Y253108D01*
X294460Y252800D01*
X296176Y251085D01*
X295985Y250623D01*
X292370D01*
Y247458D01*
X299079D01*
X299344Y247067D01*
Y246176D01*
X301433D01*
X301817Y246017D01*
X302600Y245914D01*
X303383Y246017D01*
X303767Y246176D01*
X305856D01*
Y251704D01*
X304116D01*
X299626Y256193D01*
Y257800D01*
X299523Y258583D01*
X299220Y259313D01*
X298915Y259712D01*
X299250Y260096D01*
X304991Y256810D01*
X305132Y256792D01*
X305263Y256739D01*
X306883Y256747D01*
X312753D01*
Y263653D01*
X311649D01*
X306198Y266767D01*
X306347Y267258D01*
X307601Y267166D01*
X308399Y266836D01*
X309300Y266718D01*
X310201Y266836D01*
X311041Y267184D01*
X311762Y267738D01*
X312316Y268459D01*
X312664Y269299D01*
X312783Y270200D01*
X312664Y271101D01*
X312316Y271941D01*
X311762Y272662D01*
X311041Y273216D01*
X310201Y273564D01*
X309300Y273682D01*
X308399Y273564D01*
X307943Y273375D01*
X303370Y272695D01*
X303316Y272662D01*
X303252Y272664D01*
X300052Y271404D01*
X299993Y271347D01*
X299915Y271325D01*
X298874Y270505D01*
X298424Y270724D01*
Y271613D01*
X296940D01*
Y270121D01*
X295940D01*
Y271613D01*
X295213D01*
X295044Y272113D01*
X295061Y272127D01*
X295537Y272747D01*
X295836Y273469D01*
X295872Y273744D01*
X290016D01*
X290052Y273469D01*
X290351Y272747D01*
X290827Y272127D01*
X291138Y271888D01*
X291127Y271572D01*
X290914Y271253D01*
X290444Y271113D01*
X290444D01*
X290444Y271113D01*
X290444Y271113D01*
X289410D01*
X288202Y272321D01*
X287871Y272542D01*
X287481Y272620D01*
X283800D01*
X283410Y272542D01*
X283079Y272321D01*
X282950Y272192D01*
X282521Y272621D01*
X282190Y272842D01*
X281800Y272920D01*
X269721D01*
X269656Y273416D01*
X270212Y273788D01*
X270341Y273980D01*
X283700D01*
X284090Y274058D01*
X284421Y274279D01*
X290077Y279935D01*
X290799Y279636D01*
X291700Y279518D01*
X292601Y279636D01*
X293441Y279984D01*
X294163Y280538D01*
X294716Y281259D01*
X295064Y282099D01*
X295182Y283000D01*
X295064Y283901D01*
X294716Y284741D01*
X294163Y285462D01*
X293441Y286016D01*
X292601Y286364D01*
X291700Y286483D01*
X290799Y286364D01*
X289959Y286016D01*
X289237Y285462D01*
X288684Y284741D01*
X288336Y283901D01*
X288217Y283000D01*
X288336Y282099D01*
X288635Y281377D01*
X283278Y276020D01*
X270341D01*
X270212Y276212D01*
X269656Y276584D01*
X269000Y276714D01*
X268344Y276584D01*
X267788Y276212D01*
X267416Y275656D01*
X267286Y275000D01*
X267416Y274344D01*
X267788Y273788D01*
X268226Y273495D01*
X268146Y272985D01*
X267793Y272949D01*
X266521Y274221D01*
X266190Y274442D01*
X265800Y274520D01*
X248469D01*
X248261Y275020D01*
X250271Y277029D01*
X250492Y277360D01*
X250570Y277750D01*
Y281928D01*
X251375Y282733D01*
X252031D01*
Y281481D01*
X256968D01*
Y283030D01*
X258225D01*
Y281650D01*
X262375D01*
Y286449D01*
X262738Y286780D01*
X263851D01*
Y284625D01*
X265231D01*
Y282968D01*
X263976D01*
Y278031D01*
X268519D01*
Y282968D01*
X267270D01*
Y284625D01*
X268650D01*
Y288500D01*
X268650Y288775D01*
X269057Y289000D01*
D01*
X269743D01*
X270150Y288775D01*
X270150Y288500D01*
Y284625D01*
X274949D01*
Y285680D01*
X277578D01*
X278635Y284623D01*
X278336Y283901D01*
X278218Y283000D01*
X278336Y282099D01*
X278684Y281259D01*
X279238Y280538D01*
X279959Y279984D01*
X280799Y279636D01*
X281700Y279518D01*
X282601Y279636D01*
X283441Y279984D01*
X284162Y280538D01*
X284716Y281259D01*
X285064Y282099D01*
X285182Y283000D01*
X285064Y283901D01*
X284716Y284741D01*
X284162Y285462D01*
X283441Y286016D01*
X282601Y286364D01*
X281700Y286483D01*
X280799Y286364D01*
X280077Y286065D01*
X278721Y287421D01*
X278390Y287642D01*
X278000Y287720D01*
X275303D01*
X274949Y288073D01*
Y288500D01*
X274949Y288775D01*
X275356Y289000D01*
D01*
X315000D01*
Y227500D01*
D02*
G37*
G36*
X221279Y282129D02*
X221610Y281908D01*
X222000Y281830D01*
X228228D01*
Y280447D01*
X231000D01*
X233772D01*
Y281830D01*
X234428D01*
Y277872D01*
X235949D01*
Y272902D01*
X230114D01*
Y272905D01*
X230036Y273296D01*
X229816Y273626D01*
X227769Y275673D01*
Y276500D01*
X227692Y276890D01*
X227649Y276954D01*
Y277875D01*
X222850D01*
Y273725D01*
X225169D01*
X225535Y273402D01*
Y271425D01*
X227126D01*
Y270425D01*
X225535D01*
Y268965D01*
X222098D01*
Y268894D01*
X221224D01*
Y270768D01*
X217926D01*
X215912Y272783D01*
X215989Y272911D01*
X216024Y272971D01*
X216035Y272988D01*
X216154Y273187D01*
X216177Y273225D01*
X216240Y273225D01*
X216490Y273225D01*
X218450D01*
Y275300D01*
X216051D01*
Y273708D01*
X215965Y273644D01*
X215286Y273761D01*
X215212Y273872D01*
X215020Y274000D01*
Y281680D01*
X215650D01*
X216041Y281758D01*
X216371Y281979D01*
X218318Y283925D01*
X219483D01*
X221279Y282129D01*
D02*
G37*
%LPC*%
G36*
X170956Y266004D02*
X164444D01*
Y265720D01*
X162121D01*
X161731Y265642D01*
X161400Y265421D01*
X156924Y260945D01*
X156004Y261326D01*
X155000Y261458D01*
X153996Y261326D01*
X153060Y260939D01*
X152625Y260605D01*
X134875D01*
X134440Y260939D01*
X133504Y261326D01*
X132500Y261458D01*
X131496Y261326D01*
X130560Y260939D01*
X129757Y260322D01*
X129140Y259519D01*
X128753Y258583D01*
X128620Y257579D01*
X128753Y256575D01*
X129140Y255639D01*
X129757Y254835D01*
X130560Y254219D01*
X131496Y253831D01*
X132500Y253699D01*
X133504Y253831D01*
X134440Y254219D01*
X134875Y254553D01*
X152625D01*
X153060Y254219D01*
X153996Y253831D01*
X155000Y253699D01*
X156004Y253831D01*
X156940Y254219D01*
X157743Y254835D01*
X158360Y255639D01*
X158747Y256575D01*
X158880Y257579D01*
X158747Y258583D01*
X158366Y259503D01*
X162544Y263680D01*
X164444D01*
Y260476D01*
X170956D01*
Y261921D01*
X176411D01*
Y261319D01*
X182923D01*
Y264681D01*
X176411D01*
Y264020D01*
X174300D01*
X173999Y263960D01*
X170956D01*
Y266004D01*
D02*
G37*
G36*
X216419Y253368D02*
X214147D01*
Y250900D01*
X216419D01*
Y253368D01*
D02*
G37*
G36*
X267168Y250642D02*
X264700D01*
Y248370D01*
X267168D01*
Y250642D01*
D02*
G37*
G36*
X182923Y254681D02*
X176411D01*
Y254020D01*
X175500D01*
X175110Y253942D01*
X174779Y253721D01*
X174627Y253569D01*
X174400Y253614D01*
X173744Y253484D01*
X173188Y253112D01*
X172816Y252556D01*
X172686Y251900D01*
X172816Y251244D01*
X173188Y250688D01*
X173744Y250316D01*
X174400Y250186D01*
X175056Y250316D01*
X175612Y250688D01*
X175941Y251180D01*
X176411Y251319D01*
X176411D01*
X176411Y251319D01*
X176411Y251319D01*
X178647D01*
Y249369D01*
X176876D01*
Y246070D01*
X169279Y238474D01*
X169058Y238143D01*
X168980Y237753D01*
Y236400D01*
X168956Y236397D01*
X167983Y235994D01*
X167147Y235353D01*
X166506Y234517D01*
X166103Y233544D01*
X165965Y232500D01*
X166103Y231456D01*
X166506Y230483D01*
X167147Y229647D01*
X167983Y229006D01*
X168956Y228603D01*
X170000Y228466D01*
X171044Y228603D01*
X172017Y229006D01*
X172853Y229647D01*
X173494Y230483D01*
X173897Y231456D01*
X174035Y232500D01*
X173897Y233544D01*
X173494Y234517D01*
X172853Y235353D01*
X172017Y235994D01*
X171044Y236397D01*
X171020Y236400D01*
Y237330D01*
X178121Y244431D01*
X181419D01*
Y249369D01*
X180686D01*
Y251319D01*
X182923D01*
Y254681D01*
D02*
G37*
G36*
X258068Y261947D02*
X255600D01*
Y259676D01*
X258068D01*
Y261947D01*
D02*
G37*
G36*
X182923Y259681D02*
X176411D01*
Y259020D01*
X173200D01*
X172810Y258942D01*
X172479Y258721D01*
X171418Y257660D01*
X170956Y257851D01*
Y258524D01*
X164444D01*
Y253386D01*
X159814Y248756D01*
X158741D01*
X158360Y249676D01*
X157743Y250480D01*
X156940Y251096D01*
X156004Y251484D01*
X155000Y251616D01*
X153996Y251484D01*
X153060Y251096D01*
X152625Y250762D01*
X134875D01*
X134440Y251096D01*
X133504Y251484D01*
X132500Y251616D01*
X131496Y251484D01*
X130560Y251096D01*
X129757Y250480D01*
X129140Y249676D01*
X128753Y248740D01*
X128620Y247736D01*
X128753Y246732D01*
X129140Y245796D01*
X129757Y244993D01*
X130560Y244376D01*
X131496Y243989D01*
X132500Y243857D01*
X133504Y243989D01*
X134440Y244376D01*
X134875Y244710D01*
X152625D01*
X153060Y244376D01*
X153996Y243989D01*
X155000Y243857D01*
X156004Y243989D01*
X156940Y244376D01*
X157743Y244993D01*
X158360Y245796D01*
X158741Y246717D01*
X160236D01*
X160626Y246794D01*
X160957Y247015D01*
X166938Y252996D01*
X170956D01*
Y254499D01*
X171050Y254518D01*
X171381Y254739D01*
X173622Y256980D01*
X176411D01*
Y256319D01*
X182923D01*
Y259681D01*
D02*
G37*
G36*
X183423Y270181D02*
X180167D01*
Y268500D01*
X183423D01*
Y270181D01*
D02*
G37*
G36*
X132000Y276764D02*
X128182D01*
X128265Y276129D01*
X128703Y275072D01*
X129400Y274164D01*
X130308Y273467D01*
X131365Y273029D01*
X132000Y272946D01*
Y276764D01*
D02*
G37*
G36*
X136818D02*
X133000D01*
Y272946D01*
X133635Y273029D01*
X134692Y273467D01*
X135600Y274164D01*
X136297Y275072D01*
X136735Y276129D01*
X136818Y276764D01*
D02*
G37*
G36*
X179167Y270181D02*
X175911D01*
Y268500D01*
X179167D01*
Y270181D01*
D02*
G37*
G36*
X255600Y265219D02*
Y262947D01*
X258068D01*
Y265219D01*
X255600D01*
D02*
G37*
G36*
X179167Y267500D02*
X175911D01*
Y265819D01*
X179167D01*
Y267500D01*
D02*
G37*
G36*
X183423D02*
X180167D01*
Y265819D01*
X183423D01*
Y267500D01*
D02*
G37*
G36*
X209500Y237000D02*
X205500D01*
Y233000D01*
X209500D01*
Y237000D01*
D02*
G37*
G36*
X302600Y244486D02*
X301817Y244383D01*
X301433Y244224D01*
X299344D01*
Y243533D01*
X299079Y243143D01*
X292370D01*
Y239977D01*
X294605D01*
Y236469D01*
X292481D01*
Y231532D01*
X297024D01*
Y234021D01*
X297524Y234120D01*
X297580Y233987D01*
X298060Y233360D01*
X298687Y232879D01*
X299417Y232577D01*
X300200Y232474D01*
X300983Y232577D01*
X301713Y232879D01*
X302340Y233360D01*
X304740Y235760D01*
X305221Y236387D01*
X305523Y237117D01*
X305626Y237900D01*
Y238696D01*
X305856D01*
Y244224D01*
X303767D01*
X303383Y244383D01*
X302600Y244486D01*
D02*
G37*
G36*
X214500Y237000D02*
X210500D01*
Y233000D01*
X214500D01*
Y237000D01*
D02*
G37*
G36*
X263500Y236539D02*
X263000D01*
Y233000D01*
X265539D01*
Y234500D01*
X265384Y235280D01*
X264942Y235942D01*
X264280Y236384D01*
X263500Y236539D01*
D02*
G37*
G36*
X291619Y233500D02*
X289347D01*
Y231031D01*
X291619D01*
Y233500D01*
D02*
G37*
G36*
X214500Y232000D02*
X210500D01*
Y228000D01*
X214500D01*
Y232000D01*
D02*
G37*
G36*
X209500D02*
X205500D01*
Y228000D01*
X209500D01*
Y232000D01*
D02*
G37*
G36*
X288347Y233500D02*
X286076D01*
Y231031D01*
X288347D01*
Y233500D01*
D02*
G37*
G36*
X265539Y232000D02*
X263000D01*
Y228461D01*
X263500D01*
X264280Y228616D01*
X264942Y229058D01*
X265384Y229720D01*
X265539Y230500D01*
Y232000D01*
D02*
G37*
G36*
X289630Y250623D02*
X282921D01*
Y247883D01*
X282921Y247458D01*
X282452Y247383D01*
X282452D01*
X282421D01*
Y245800D01*
X290130D01*
Y247383D01*
X290099D01*
X289630Y247458D01*
X289630Y247883D01*
Y250623D01*
D02*
G37*
G36*
X251200Y246619D02*
X248731D01*
Y244347D01*
X251200D01*
Y246619D01*
D02*
G37*
G36*
X187824Y249868D02*
X185553D01*
Y247400D01*
X187824D01*
Y249868D01*
D02*
G37*
G36*
X184553D02*
X182281D01*
Y247400D01*
X184553D01*
Y249868D01*
D02*
G37*
G36*
Y246400D02*
X182281D01*
Y243932D01*
X184553D01*
Y246400D01*
D02*
G37*
G36*
X291619Y236968D02*
X289347D01*
Y234500D01*
X291619D01*
Y236968D01*
D02*
G37*
G36*
X288347D02*
X286076D01*
Y234500D01*
X288347D01*
Y236968D01*
D02*
G37*
G36*
X261268Y245947D02*
X258800D01*
Y243676D01*
X261268D01*
Y245947D01*
D02*
G37*
G36*
X251200Y243347D02*
X248731D01*
Y241076D01*
X251200D01*
Y243347D01*
D02*
G37*
G36*
X305653Y282500D02*
X302200D01*
Y279047D01*
X305653D01*
Y282500D01*
D02*
G37*
G36*
X301200D02*
X297747D01*
Y279047D01*
X301200D01*
Y282500D01*
D02*
G37*
G36*
X274924Y283469D02*
X272653D01*
Y281000D01*
X274924D01*
Y283469D01*
D02*
G37*
G36*
X271653D02*
X269381D01*
Y281000D01*
X271653D01*
Y283469D01*
D02*
G37*
G36*
X257469Y280619D02*
X255000D01*
Y278347D01*
X257469D01*
Y280619D01*
D02*
G37*
G36*
X155500Y281582D02*
Y277764D01*
X159318D01*
X159235Y278398D01*
X158797Y279456D01*
X158100Y280364D01*
X157192Y281060D01*
X156135Y281498D01*
X155500Y281582D01*
D02*
G37*
G36*
X154500D02*
X153865Y281498D01*
X152808Y281060D01*
X151900Y280364D01*
X151203Y279456D01*
X150765Y278398D01*
X150682Y277764D01*
X154500D01*
Y281582D01*
D02*
G37*
G36*
X254000Y280619D02*
X251532D01*
Y278347D01*
X254000D01*
Y280619D01*
D02*
G37*
G36*
X201100Y280119D02*
X198632D01*
Y277847D01*
X201100D01*
Y280119D01*
D02*
G37*
G36*
X179168Y287124D02*
X176700D01*
Y284853D01*
X179168D01*
Y287124D01*
D02*
G37*
G36*
X175700D02*
X173231D01*
Y284853D01*
X175700D01*
Y287124D01*
D02*
G37*
G36*
X172556Y287904D02*
X169300D01*
Y285140D01*
X172556D01*
Y287904D01*
D02*
G37*
G36*
X168300D02*
X165044D01*
Y285140D01*
X168300D01*
Y287904D01*
D02*
G37*
G36*
X305653Y286953D02*
X302200D01*
Y283500D01*
X305653D01*
Y286953D01*
D02*
G37*
G36*
X172556Y284140D02*
X169300D01*
Y281376D01*
X172556D01*
Y284140D01*
D02*
G37*
G36*
X168300D02*
X165044D01*
Y281376D01*
X168300D01*
Y284140D01*
D02*
G37*
G36*
X301200Y286953D02*
X297747D01*
Y283500D01*
X301200D01*
Y286953D01*
D02*
G37*
G36*
X175700Y283853D02*
X173231D01*
Y281581D01*
X175700D01*
Y283853D01*
D02*
G37*
G36*
X133000Y281582D02*
Y277764D01*
X136818D01*
X136735Y278398D01*
X136297Y279456D01*
X135600Y280364D01*
X134692Y281060D01*
X133635Y281498D01*
X133000Y281582D01*
D02*
G37*
G36*
X293444Y277172D02*
Y274744D01*
X295872D01*
X295836Y275019D01*
X295537Y275741D01*
X295061Y276361D01*
X294441Y276837D01*
X293719Y277136D01*
X293444Y277172D01*
D02*
G37*
G36*
X292444D02*
X292169Y277136D01*
X291447Y276837D01*
X290827Y276361D01*
X290351Y275741D01*
X290052Y275019D01*
X290016Y274744D01*
X292444D01*
Y277172D01*
D02*
G37*
G36*
X257469Y277347D02*
X255000D01*
Y275076D01*
X257469D01*
Y277347D01*
D02*
G37*
G36*
X254000D02*
X251532D01*
Y275076D01*
X254000D01*
Y277347D01*
D02*
G37*
G36*
X201100Y276847D02*
X198632D01*
Y274576D01*
X201100D01*
Y276847D01*
D02*
G37*
G36*
X159318Y276764D02*
X155500D01*
Y272946D01*
X156135Y273029D01*
X157192Y273467D01*
X158100Y274164D01*
X158797Y275072D01*
X159235Y276129D01*
X159318Y276764D01*
D02*
G37*
G36*
X154500D02*
X150682D01*
X150765Y276129D01*
X151203Y275072D01*
X151900Y274164D01*
X152808Y273467D01*
X153865Y273029D01*
X154500Y272946D01*
Y276764D01*
D02*
G37*
G36*
X204569Y280119D02*
X204543D01*
X204284Y280119D01*
X202100D01*
Y277347D01*
Y274576D01*
X204244D01*
X204569Y274576D01*
X204744Y274148D01*
X204744Y274148D01*
Y273496D01*
X208000D01*
Y276760D01*
Y280024D01*
X205068D01*
X205029D01*
X204569Y280119D01*
D02*
G37*
G36*
X221850Y275300D02*
X219450D01*
Y273225D01*
X221850D01*
Y275300D01*
D02*
G37*
G36*
X271653Y280000D02*
X269381D01*
Y277532D01*
X271653D01*
Y280000D01*
D02*
G37*
G36*
X233772Y279447D02*
X231500D01*
Y277372D01*
X233772D01*
Y279447D01*
D02*
G37*
G36*
X132000Y281582D02*
X131365Y281498D01*
X130308Y281060D01*
X129400Y280364D01*
X128703Y279456D01*
X128265Y278398D01*
X128182Y277764D01*
X132000D01*
Y281582D01*
D02*
G37*
G36*
X274924Y280000D02*
X272653D01*
Y277532D01*
X274924D01*
Y280000D01*
D02*
G37*
G36*
X230500Y279447D02*
X228228D01*
Y277372D01*
X230500D01*
Y279447D01*
D02*
G37*
G36*
X218450Y278375D02*
X216051D01*
Y276300D01*
X218450D01*
Y278375D01*
D02*
G37*
G36*
X262375Y280150D02*
X258225D01*
Y275351D01*
X262375D01*
Y280150D01*
D02*
G37*
G36*
X209000Y280024D02*
Y277260D01*
X212256D01*
Y280024D01*
X209000D01*
D02*
G37*
G36*
X221850Y278375D02*
X219450D01*
Y276300D01*
X221850D01*
Y278375D01*
D02*
G37*
%LPD*%
D10*
X274400Y246039D02*
D03*
Y263361D02*
D03*
D11*
X260300Y284050D02*
D03*
Y277750D02*
D03*
X242200Y279450D02*
D03*
Y285750D02*
D03*
X260700Y262550D02*
D03*
Y268850D02*
D03*
D12*
X254500Y277847D02*
D03*
Y283753D02*
D03*
X255100Y268353D02*
D03*
Y262447D02*
D03*
X251700Y249753D02*
D03*
Y243847D02*
D03*
X264200Y257047D02*
D03*
Y251142D02*
D03*
X258300Y252353D02*
D03*
Y246447D02*
D03*
X176200Y284353D02*
D03*
Y278447D02*
D03*
X201600Y277347D02*
D03*
Y283253D02*
D03*
D13*
X286276Y249040D02*
D03*
Y245300D02*
D03*
Y241560D02*
D03*
X295724Y249040D02*
D03*
Y241560D02*
D03*
X185076Y283440D02*
D03*
Y279700D02*
D03*
Y275960D02*
D03*
X194524Y283440D02*
D03*
Y275960D02*
D03*
D14*
X236700Y285853D02*
D03*
Y279947D02*
D03*
X231000Y285853D02*
D03*
Y279947D02*
D03*
D15*
X272550Y286700D02*
D03*
X266250D02*
D03*
X218850Y286000D02*
D03*
X225150D02*
D03*
X225250Y275800D02*
D03*
X218950D02*
D03*
D16*
X272153Y280500D02*
D03*
X266247D02*
D03*
X179147Y246900D02*
D03*
X185053D02*
D03*
X218953Y268300D02*
D03*
X213047D02*
D03*
X294753Y234000D02*
D03*
X288847D02*
D03*
X285047Y256000D02*
D03*
X290953D02*
D03*
X219553Y250400D02*
D03*
X213647D02*
D03*
D17*
X200533Y253000D02*
D03*
Y258000D02*
D03*
Y263000D02*
D03*
Y268000D02*
D03*
X179667Y268000D02*
D03*
Y263000D02*
D03*
Y258000D02*
D03*
Y253000D02*
D03*
D18*
X167700Y263240D02*
D03*
Y255760D02*
D03*
X302600Y248940D02*
D03*
Y241460D02*
D03*
X168800Y284640D02*
D03*
Y277160D02*
D03*
X208500Y276760D02*
D03*
Y284240D02*
D03*
D19*
X296440Y260279D02*
D03*
Y262247D02*
D03*
Y264216D02*
D03*
Y266184D02*
D03*
Y268153D02*
D03*
Y270121D02*
D03*
X288960D02*
D03*
Y268153D02*
D03*
Y266184D02*
D03*
Y264216D02*
D03*
Y262247D02*
D03*
Y260279D02*
D03*
D20*
X292700Y265200D02*
D03*
D21*
X235000Y260000D02*
D03*
D22*
X242874Y249075D02*
D03*
X240905D02*
D03*
X238937D02*
D03*
X236968D02*
D03*
X235000D02*
D03*
X233032D02*
D03*
X231063D02*
D03*
X229095D02*
D03*
X227126D02*
D03*
Y270925D02*
D03*
X229095D02*
D03*
X231063D02*
D03*
X233032D02*
D03*
X235000D02*
D03*
X236968D02*
D03*
X238937D02*
D03*
X240905D02*
D03*
X242874D02*
D03*
D23*
X224075Y252126D02*
D03*
Y254095D02*
D03*
Y256063D02*
D03*
Y258032D02*
D03*
Y260000D02*
D03*
Y261968D02*
D03*
Y263937D02*
D03*
Y265905D02*
D03*
Y267874D02*
D03*
X245925D02*
D03*
Y265905D02*
D03*
Y263937D02*
D03*
Y261968D02*
D03*
Y260000D02*
D03*
Y258032D02*
D03*
Y256063D02*
D03*
Y254095D02*
D03*
Y252126D02*
D03*
D24*
X301100Y270200D02*
X309300D01*
X299984Y264216D02*
X300200Y264000D01*
X296440Y262247D02*
X297953D01*
X302500Y249040D02*
X303400D01*
X295724D02*
X302500D01*
X283700Y275000D02*
X291700Y283000D01*
X269000Y275000D02*
X283700D01*
X281800Y271900D02*
X282750Y270950D01*
X267400Y271900D02*
X281800D01*
X265800Y273500D02*
X267400Y271900D01*
X279700Y270000D02*
X280124Y269576D01*
X266600Y270000D02*
X279700D01*
X264000Y243300D02*
X267800Y239500D01*
X264000Y243300D02*
Y245000D01*
X227126Y268574D02*
Y270925D01*
X202040Y275960D02*
X208500D01*
X205100Y227600D02*
X210000Y232500D01*
X176400Y227600D02*
X205100D01*
X175000Y229000D02*
X176400Y227600D01*
X175000Y229000D02*
Y235900D01*
X185053Y245953D01*
Y246900D01*
X180000Y232500D02*
Y234900D01*
X257900Y232400D02*
Y237100D01*
X255100Y239900D02*
X257900Y237100D01*
X230900Y232400D02*
Y240900D01*
X233032Y243032D01*
X225900Y232400D02*
Y238400D01*
X231063Y243563D01*
X220900Y232400D02*
Y238400D01*
X229095Y246595D01*
X235900Y232400D02*
Y244100D01*
X235000Y245000D02*
X235900Y244100D01*
X240900Y232400D02*
Y241600D01*
X236968Y245532D02*
X240900Y241600D01*
X245900Y232400D02*
Y239100D01*
X238937Y246063D02*
X245900Y239100D01*
X250900Y232400D02*
Y236600D01*
X240905Y246595D02*
X250900Y236600D01*
X200000Y234850D02*
Y242200D01*
X190000Y232500D02*
Y239900D01*
X170000Y232500D02*
Y237753D01*
X155000Y277264D02*
X162436Y284700D01*
X155000Y267421D02*
X159061D01*
X155000Y257579D02*
X162121Y264700D01*
X155000Y247736D02*
X160236D01*
X167200Y254700D01*
X167900D01*
X162436Y284700D02*
X176360D01*
X249913Y243847D02*
X252100D01*
X258300Y246447D02*
X259506D01*
X286547Y255500D02*
Y257866D01*
X286347Y255700D02*
X286400D01*
X259260Y268500D02*
X261000Y270240D01*
Y268850D02*
Y270240D01*
Y268850D02*
X265050D01*
X260700D02*
X261000D01*
X266800Y267100D02*
X266900D01*
X265050Y268850D02*
X266800Y267100D01*
X242200Y279450D02*
Y281800D01*
X241150Y282850D02*
X242200Y281800D01*
X222000Y282850D02*
X241150D01*
X218850Y286000D02*
X222000Y282850D01*
X252100Y249753D02*
X255100Y246753D01*
Y239900D02*
Y246753D01*
X249114Y252126D02*
X252500Y248740D01*
X175500Y253000D02*
X179667D01*
X174400Y251900D02*
X175500Y253000D01*
X303316Y266184D02*
X309300Y260200D01*
X250953Y283753D02*
X254500D01*
X249550Y282350D02*
X250953Y283753D01*
X249550Y277750D02*
Y282350D01*
X254797Y284050D02*
X260300D01*
X260250Y277700D02*
X260300Y277750D01*
X249300Y287800D02*
X265150D01*
X292700Y269300D02*
X293521Y270121D01*
X176360Y284700D02*
X177100D01*
X295724Y241560D02*
X303400D01*
X295624D02*
X295724D01*
X295624Y234084D02*
Y241560D01*
X168800Y277160D02*
X169600Y277960D01*
X159061Y267421D02*
X168800Y277160D01*
X200000Y242200D02*
X201500Y243700D01*
X196100Y246000D02*
X224051D01*
X190000Y239900D02*
X196100Y246000D01*
X200000Y232500D02*
Y237200D01*
X224051Y246000D02*
X227126Y249075D01*
X203600Y247600D02*
X212063Y256063D01*
X192700Y247600D02*
X203600D01*
X180000Y234900D02*
X192700Y247600D01*
X219553Y250400D02*
X222349D01*
X213647D02*
Y252947D01*
X214794Y254095D01*
X212063Y256063D02*
X224075D01*
X213200Y260000D02*
X224075D01*
X202500Y249300D02*
X213200Y260000D01*
X197200Y249300D02*
X202500D01*
X211968Y261968D02*
X224075D01*
X203000Y253000D02*
X211968Y261968D01*
X200533Y253000D02*
X203000D01*
X296440Y264216D02*
X299984D01*
X267800Y239500D02*
X282200D01*
X284260Y241560D01*
X286276D01*
X265150Y287800D02*
X266250Y286700D01*
X247500Y286000D02*
X249300Y287800D01*
X247500Y278500D02*
Y286000D01*
X244600Y275600D02*
X247500Y278500D01*
X240700Y275600D02*
X244600D01*
X239037Y273937D02*
X240700Y275600D01*
X241400Y273500D02*
X245300D01*
X240905Y273006D02*
X241400Y273500D01*
X245300D02*
X249550Y277750D01*
X238937Y273937D02*
X239037D01*
X240905Y270925D02*
Y273006D01*
X238937Y270925D02*
Y273937D01*
X282100Y269900D02*
X283800Y271600D01*
X264700Y271900D02*
X266600Y270000D01*
X248000Y273500D02*
X265800D01*
X245925Y271425D02*
X248000Y273500D01*
X282600Y263400D02*
X284800D01*
X280124Y265876D02*
X282600Y263400D01*
X280124Y265876D02*
Y269576D01*
X282100Y267400D02*
Y269900D01*
Y267400D02*
X283316Y266184D01*
X288960D01*
X249100Y271900D02*
X264700D01*
X268963Y256063D02*
X273800Y260900D01*
X286547Y257866D02*
X288960Y260279D01*
X293521Y270121D02*
X296440D01*
X292700Y265200D02*
Y269300D01*
X287481Y271600D02*
X288960Y270121D01*
X283800Y271600D02*
X287481D01*
X284800Y263400D02*
X285200D01*
X286016Y264216D01*
X284800Y268400D02*
Y269000D01*
Y268400D02*
X285047Y268153D01*
X252260Y268500D02*
X259260D01*
X250994Y267234D02*
X252260Y268500D01*
X245925Y267874D02*
Y271425D01*
X249100Y266800D02*
Y271900D01*
X248205Y265905D02*
X249100Y266800D01*
X250994Y263494D02*
Y267234D01*
X245925Y265905D02*
X248205D01*
X236700Y285853D02*
X242503D01*
X225150Y286000D02*
X230853D01*
X266250Y280503D02*
Y286700D01*
X272550D02*
X278000D01*
X281700Y283000D01*
X241400Y253000D02*
X242874Y251526D01*
X227126Y268574D02*
X228300Y267400D01*
X215650Y282700D02*
X218650Y285700D01*
X214000Y282700D02*
X215650D01*
X236968Y270925D02*
Y279947D01*
X229095Y270925D02*
Y272905D01*
X226750Y275250D02*
X229095Y272905D01*
X226750Y275250D02*
Y276500D01*
X245925Y256063D02*
X268963D01*
X268806Y254095D02*
X272900Y250000D01*
X245925Y254095D02*
X268806D01*
X261000Y259760D02*
Y262000D01*
X259272Y258032D02*
X261000Y259760D01*
X170000Y237753D02*
X179147Y246900D01*
X240905Y246595D02*
Y249075D01*
X238937Y246063D02*
Y249075D01*
X236968Y245532D02*
Y249075D01*
X235000Y245000D02*
Y249075D01*
X233032Y243032D02*
Y249075D01*
X231063Y243563D02*
Y249075D01*
X229095Y246595D02*
Y249075D01*
X190000Y232500D02*
Y234900D01*
X180000Y232500D02*
Y235600D01*
X195500Y251000D02*
X197200Y249300D01*
X208500Y275960D02*
Y276760D01*
Y271400D02*
Y275960D01*
Y271400D02*
X211600Y268300D01*
X213047D01*
X196824Y283440D02*
X208600D01*
X208500Y284240D02*
X212460D01*
X214000Y282700D01*
Y272660D02*
Y282700D01*
X210000Y263937D02*
X224075D01*
X205937Y268000D02*
X210000Y263937D01*
X200533Y268000D02*
X205937D01*
X218953Y268300D02*
X219379Y267874D01*
X214593Y272660D02*
X218953Y268300D01*
X219379Y267874D02*
X224075D01*
X214000Y272660D02*
X214593D01*
X195500Y251000D02*
Y256700D01*
X185053Y265947D02*
X189900Y270795D01*
Y280500D01*
X185053Y246900D02*
Y265947D01*
X183000Y268000D02*
X185053Y265947D01*
X179667Y268000D02*
X183000D01*
X197500Y280500D02*
X202040Y275960D01*
X173200Y258000D02*
X179667D01*
X170660Y255460D02*
X173200Y258000D01*
X180340Y281440D02*
X182340Y283440D01*
X180340Y275960D02*
Y281440D01*
X242874Y249075D02*
Y251526D01*
X224075Y254095D02*
X229095D01*
X178340Y277960D02*
X180340Y275960D01*
X169600Y277960D02*
X178340D01*
X288960Y260279D02*
Y262247D01*
X245925Y258032D02*
X259272D01*
X196800Y258000D02*
X200533D01*
X195500Y256700D02*
X196800Y258000D01*
X200533D02*
Y263000D01*
X179667Y247300D02*
Y253000D01*
X167700Y255460D02*
X170660D01*
X167700Y262940D02*
X178960D01*
X174300Y263000D02*
X179667D01*
X162121Y264700D02*
X167500D01*
X189900Y280500D02*
X197500D01*
X176360Y284700D02*
X178860Y287200D01*
X188100D01*
X189900Y285400D01*
Y280500D02*
Y285400D01*
X189100Y279700D02*
X189900Y280500D01*
X185076Y279700D02*
X189100D01*
X182340Y283440D02*
X185076D01*
X180340Y275960D02*
X185076D01*
X289800Y245300D02*
X291000Y244100D01*
X286176Y245300D02*
X289800D01*
X286016Y264216D02*
X288960D01*
X285047Y268153D02*
X288960D01*
X244685Y249075D02*
X249913Y243847D01*
X242874Y249075D02*
X244685D01*
X245925Y252126D02*
X249114D01*
X214794Y254095D02*
X224075D01*
X222349Y250400D02*
X224075Y252126D01*
X245925Y261968D02*
X249468D01*
X272900Y242008D02*
Y250000D01*
D25*
X290953Y251153D02*
Y256000D01*
X292700Y264000D02*
Y265200D01*
Y261000D02*
Y264000D01*
X291444Y256000D02*
Y259744D01*
X290953Y256000D02*
X291444D01*
Y259744D02*
X292700Y261000D01*
X218925Y275775D02*
X223775Y270925D01*
X226700D01*
X288060Y234000D02*
X291000Y236940D01*
X288060Y234000D02*
X288847D01*
X264000D02*
X288060D01*
X262500Y232500D02*
X264000Y234000D01*
X258300Y241800D02*
X262500Y237600D01*
X290953Y251153D02*
X291000Y251200D01*
X259506Y246447D02*
X264200Y251142D01*
X262500Y232500D02*
Y237600D01*
X258300Y241800D02*
Y246447D01*
X291000Y244100D02*
Y251200D01*
Y236940D02*
Y244100D01*
D26*
X302500Y249040D02*
X302600Y248940D01*
X296600Y254940D02*
X302500Y249040D01*
X296600Y254940D02*
Y257800D01*
X132500Y247736D02*
X155000D01*
X132500Y257579D02*
X155000D01*
X132500Y267421D02*
X155000D01*
X132500Y277264D02*
X155000D01*
X301700Y278700D02*
Y283000D01*
X297244Y274244D02*
X301700Y278700D01*
X292944Y274244D02*
X297244D01*
X292944Y270376D02*
Y274244D01*
X302600Y237900D02*
Y241460D01*
X300200Y235500D02*
X302600Y237900D01*
D27*
X252653Y260000D02*
X255100Y262447D01*
X245925Y260000D02*
X252653D01*
X235000D02*
X245925D01*
D28*
X170000Y232500D02*
D03*
X190000D02*
D03*
X200000D02*
D03*
X180000D02*
D03*
D29*
X210000D02*
D03*
D30*
X155000Y247736D02*
D03*
Y257579D02*
D03*
Y267421D02*
D03*
Y277264D02*
D03*
X132500D02*
D03*
Y267421D02*
D03*
Y257579D02*
D03*
Y247736D02*
D03*
D31*
X262500Y232500D02*
D03*
X257900Y232400D02*
D03*
X220900D02*
D03*
X225900D02*
D03*
X230900D02*
D03*
X235900D02*
D03*
X240900D02*
D03*
X245900D02*
D03*
X250900D02*
D03*
D32*
X309300Y260200D02*
D03*
D33*
Y270200D02*
D03*
X291700Y283000D02*
D03*
X281700D02*
D03*
D34*
X301700D02*
D03*
D35*
X189800Y277300D02*
D03*
Y280200D02*
D03*
Y283300D02*
D03*
X300200Y264000D02*
D03*
X269000Y275000D02*
D03*
X272153Y280500D02*
D03*
X292700Y261000D02*
D03*
Y264000D02*
D03*
Y267000D02*
D03*
Y270000D02*
D03*
X264000Y245000D02*
D03*
X230953Y279947D02*
D03*
X254500Y277900D02*
D03*
X286400Y255700D02*
D03*
X266900Y267100D02*
D03*
X174400Y251900D02*
D03*
X260250Y277700D02*
D03*
X201500Y243700D02*
D03*
X219553Y250400D02*
D03*
X284800Y263400D02*
D03*
Y269000D02*
D03*
X252100Y249753D02*
D03*
X218850Y275900D02*
D03*
X208500Y276760D02*
D03*
X261000Y262000D02*
D03*
X249900Y263100D02*
D03*
X214000Y272660D02*
D03*
D36*
X292944Y274244D02*
D03*
X300200Y235500D02*
D03*
M02*
